<?xml version="1.0" encoding="utf-8" standalone="no"?>
<!DOCTYPE svg PUBLIC "-//W3C//DTD SVG 1.1//EN"
  "http://www.w3.org/Graphics/SVG/1.1/DTD/svg11.dtd">
<!-- Created with matplotlib (http://matplotlib.org/) -->
<svg height="432pt" version="1.1" viewBox="0 0 576 432" width="576pt" xmlns="http://www.w3.org/2000/svg" xmlns:xlink="http://www.w3.org/1999/xlink">
 <defs>
  <style type="text/css">
*{stroke-linecap:butt;stroke-linejoin:round;}
  </style>
 </defs>
 <g id="figure_1">
  <g id="patch_1">
   <path d="
M0 432
L576 432
L576 0
L0 0
z
" style="fill:#ffffff;"/>
  </g>
  <g id="axes_1">
   <g id="patch_2">
    <path d="
M48.4116 384.84
L552.036 384.84
L552.036 28.76
L48.4116 28.76
z
" style="fill:#ffffff;"/>
   </g>
   <g id="matplotlib.axis_1">
    <g id="xtick_1">
     <g id="line2d_1">
      <defs>
       <path d="
M0 0
L0 -4" id="m93b0483c22" style="stroke:#000000;stroke-width:0.5;"/>
      </defs>
      <g>
       <use style="stroke:#000000;stroke-width:0.5;" x="90.716023125" xlink:href="#m93b0483c22" y="384.84"/>
      </g>
     </g>
     <g id="line2d_2">
      <defs>
       <path d="
M0 0
L0 4" id="m741efc42ff" style="stroke:#000000;stroke-width:0.5;"/>
      </defs>
      <g>
       <use style="stroke:#000000;stroke-width:0.5;" x="90.716023125" xlink:href="#m741efc42ff" y="28.76"/>
      </g>
     </g>
     <g id="text_1">
      <!-- Mean Score -->
      <defs>
       <path d="
M9.8125 72.9062
L24.5156 72.9062
L43.1094 23.2969
L61.8125 72.9062
L76.5156 72.9062
L76.5156 0
L66.8906 0
L66.8906 64.0156
L48.0938 14.0156
L38.1875 14.0156
L19.3906 64.0156
L19.3906 0
L9.8125 0
z
" id="DejaVuSans-4d"/>
       <path d="
M30.6094 48.3906
Q23.3906 48.3906 19.1875 42.75
Q14.9844 37.1094 14.9844 27.2969
Q14.9844 17.4844 19.1562 11.8438
Q23.3438 6.20312 30.6094 6.20312
Q37.7969 6.20312 41.9844 11.8594
Q46.1875 17.5312 46.1875 27.2969
Q46.1875 37.0156 41.9844 42.7031
Q37.7969 48.3906 30.6094 48.3906
M30.6094 56
Q42.3281 56 49.0156 48.375
Q55.7188 40.7656 55.7188 27.2969
Q55.7188 13.875 49.0156 6.21875
Q42.3281 -1.42188 30.6094 -1.42188
Q18.8438 -1.42188 12.1719 6.21875
Q5.51562 13.875 5.51562 27.2969
Q5.51562 40.7656 12.1719 48.375
Q18.8438 56 30.6094 56" id="DejaVuSans-6f"/>
       <path d="
M54.8906 33.0156
L54.8906 0
L45.9062 0
L45.9062 32.7188
Q45.9062 40.4844 42.875 44.3281
Q39.8438 48.1875 33.7969 48.1875
Q26.5156 48.1875 22.3125 43.5469
Q18.1094 38.9219 18.1094 30.9062
L18.1094 0
L9.07812 0
L9.07812 54.6875
L18.1094 54.6875
L18.1094 46.1875
Q21.3438 51.125 25.7031 53.5625
Q30.0781 56 35.7969 56
Q45.2188 56 50.0469 50.1719
Q54.8906 44.3438 54.8906 33.0156" id="DejaVuSans-6e"/>
       <path id="DejaVuSans-20"/>
       <path d="
M53.5156 70.5156
L53.5156 60.8906
Q47.9062 63.5781 42.9219 64.8906
Q37.9375 66.2188 33.2969 66.2188
Q25.25 66.2188 20.875 63.0938
Q16.5 59.9688 16.5 54.2031
Q16.5 49.3594 19.4062 46.8906
Q22.3125 44.4375 30.4219 42.9219
L36.375 41.7031
Q47.4062 39.5938 52.6562 34.2969
Q57.9062 29 57.9062 20.125
Q57.9062 9.51562 50.7969 4.04688
Q43.7031 -1.42188 29.9844 -1.42188
Q24.8125 -1.42188 18.9688 -0.25
Q13.1406 0.921875 6.89062 3.21875
L6.89062 13.375
Q12.8906 10.0156 18.6562 8.29688
Q24.4219 6.59375 29.9844 6.59375
Q38.4219 6.59375 43.0156 9.90625
Q47.6094 13.2344 47.6094 19.3906
Q47.6094 24.75 44.3125 27.7812
Q41.0156 30.8125 33.5 32.3281
L27.4844 33.5
Q16.4531 35.6875 11.5156 40.375
Q6.59375 45.0625 6.59375 53.4219
Q6.59375 63.0938 13.4062 68.6562
Q20.2188 74.2188 32.1719 74.2188
Q37.3125 74.2188 42.625 73.2812
Q47.9531 72.3594 53.5156 70.5156" id="DejaVuSans-53"/>
       <path d="
M56.2031 29.5938
L56.2031 25.2031
L14.8906 25.2031
Q15.4844 15.9219 20.4844 11.0625
Q25.4844 6.20312 34.4219 6.20312
Q39.5938 6.20312 44.4531 7.46875
Q49.3125 8.73438 54.1094 11.2812
L54.1094 2.78125
Q49.2656 0.734375 44.1875 -0.34375
Q39.1094 -1.42188 33.8906 -1.42188
Q20.7969 -1.42188 13.1562 6.1875
Q5.51562 13.8125 5.51562 26.8125
Q5.51562 40.2344 12.7656 48.1094
Q20.0156 56 32.3281 56
Q43.3594 56 49.7812 48.8906
Q56.2031 41.7969 56.2031 29.5938
M47.2188 32.2344
Q47.125 39.5938 43.0938 43.9844
Q39.0625 48.3906 32.4219 48.3906
Q24.9062 48.3906 20.3906 44.1406
Q15.875 39.8906 15.1875 32.1719
z
" id="DejaVuSans-65"/>
       <path d="
M41.1094 46.2969
Q39.5938 47.1719 37.8125 47.5781
Q36.0312 48 33.8906 48
Q26.2656 48 22.1875 43.0469
Q18.1094 38.0938 18.1094 28.8125
L18.1094 0
L9.07812 0
L9.07812 54.6875
L18.1094 54.6875
L18.1094 46.1875
Q20.9531 51.1719 25.4844 53.5781
Q30.0312 56 36.5312 56
Q37.4531 56 38.5781 55.875
Q39.7031 55.7656 41.0625 55.5156
z
" id="DejaVuSans-72"/>
       <path d="
M48.7812 52.5938
L48.7812 44.1875
Q44.9688 46.2969 41.1406 47.3438
Q37.3125 48.3906 33.4062 48.3906
Q24.6562 48.3906 19.8125 42.8438
Q14.9844 37.3125 14.9844 27.2969
Q14.9844 17.2812 19.8125 11.7344
Q24.6562 6.20312 33.4062 6.20312
Q37.3125 6.20312 41.1406 7.25
Q44.9688 8.29688 48.7812 10.4062
L48.7812 2.09375
Q45.0156 0.34375 40.9844 -0.53125
Q36.9688 -1.42188 32.4219 -1.42188
Q20.0625 -1.42188 12.7812 6.34375
Q5.51562 14.1094 5.51562 27.2969
Q5.51562 40.6719 12.8594 48.3281
Q20.2188 56 33.0156 56
Q37.1562 56 41.1094 55.1406
Q45.0625 54.2969 48.7812 52.5938" id="DejaVuSans-63"/>
       <path d="
M34.2812 27.4844
Q23.3906 27.4844 19.1875 25
Q14.9844 22.5156 14.9844 16.5
Q14.9844 11.7188 18.1406 8.90625
Q21.2969 6.10938 26.7031 6.10938
Q34.1875 6.10938 38.7031 11.4062
Q43.2188 16.7031 43.2188 25.4844
L43.2188 27.4844
z

M52.2031 31.2031
L52.2031 0
L43.2188 0
L43.2188 8.29688
Q40.1406 3.32812 35.5469 0.953125
Q30.9531 -1.42188 24.3125 -1.42188
Q15.9219 -1.42188 10.9531 3.29688
Q6 8.01562 6 15.9219
Q6 25.1406 12.1719 29.8281
Q18.3594 34.5156 30.6094 34.5156
L43.2188 34.5156
L43.2188 35.4062
Q43.2188 41.6094 39.1406 45
Q35.0625 48.3906 27.6875 48.3906
Q23 48.3906 18.5469 47.2656
Q14.1094 46.1406 10.0156 43.8906
L10.0156 52.2031
Q14.9375 54.1094 19.5781 55.0469
Q24.2188 56 28.6094 56
Q40.4844 56 46.3438 49.8438
Q52.2031 43.7031 52.2031 31.2031" id="DejaVuSans-61"/>
      </defs>
      <g transform="translate(55.977898125 397.958125)scale(0.12 -0.12)">
       <use xlink:href="#DejaVuSans-4d"/>
       <use x="86.279296875" xlink:href="#DejaVuSans-65"/>
       <use x="147.802734375" xlink:href="#DejaVuSans-61"/>
       <use x="209.08203125" xlink:href="#DejaVuSans-6e"/>
       <use x="272.4609375" xlink:href="#DejaVuSans-20"/>
       <use x="304.248046875" xlink:href="#DejaVuSans-53"/>
       <use x="367.724609375" xlink:href="#DejaVuSans-63"/>
       <use x="422.705078125" xlink:href="#DejaVuSans-6f"/>
       <use x="483.88671875" xlink:href="#DejaVuSans-72"/>
       <use x="522.75" xlink:href="#DejaVuSans-65"/>
      </g>
     </g>
    </g>
    <g id="xtick_2">
     <g id="line2d_3">
      <g>
       <use style="stroke:#000000;stroke-width:0.5;" x="292.165835625" xlink:href="#m93b0483c22" y="384.84"/>
      </g>
     </g>
     <g id="line2d_4">
      <g>
       <use style="stroke:#000000;stroke-width:0.5;" x="292.165835625" xlink:href="#m741efc42ff" y="28.76"/>
      </g>
     </g>
     <g id="text_2">
      <!-- Maximum Score -->
      <defs>
       <path d="
M8.5 21.5781
L8.5 54.6875
L17.4844 54.6875
L17.4844 21.9219
Q17.4844 14.1562 20.5 10.2656
Q23.5312 6.39062 29.5938 6.39062
Q36.8594 6.39062 41.0781 11.0312
Q45.3125 15.6719 45.3125 23.6875
L45.3125 54.6875
L54.2969 54.6875
L54.2969 0
L45.3125 0
L45.3125 8.40625
Q42.0469 3.42188 37.7188 1
Q33.4062 -1.42188 27.6875 -1.42188
Q18.2656 -1.42188 13.375 4.4375
Q8.5 10.2969 8.5 21.5781
M31.1094 56
z
" id="DejaVuSans-75"/>
       <path d="
M52 44.1875
Q55.375 50.25 60.0625 53.125
Q64.75 56 71.0938 56
Q79.6406 56 84.2812 50.0156
Q88.9219 44.0469 88.9219 33.0156
L88.9219 0
L79.8906 0
L79.8906 32.7188
Q79.8906 40.5781 77.0938 44.375
Q74.3125 48.1875 68.6094 48.1875
Q61.625 48.1875 57.5625 43.5469
Q53.5156 38.9219 53.5156 30.9062
L53.5156 0
L44.4844 0
L44.4844 32.7188
Q44.4844 40.625 41.7031 44.4062
Q38.9219 48.1875 33.1094 48.1875
Q26.2188 48.1875 22.1562 43.5312
Q18.1094 38.875 18.1094 30.9062
L18.1094 0
L9.07812 0
L9.07812 54.6875
L18.1094 54.6875
L18.1094 46.1875
Q21.1875 51.2188 25.4844 53.6094
Q29.7812 56 35.6875 56
Q41.6562 56 45.8281 52.9688
Q50 49.9531 52 44.1875" id="DejaVuSans-6d"/>
       <path d="
M54.8906 54.6875
L35.1094 28.0781
L55.9062 0
L45.3125 0
L29.3906 21.4844
L13.4844 0
L2.875 0
L24.125 28.6094
L4.6875 54.6875
L15.2812 54.6875
L29.7812 35.2031
L44.2812 54.6875
z
" id="DejaVuSans-78"/>
       <path d="
M9.42188 54.6875
L18.4062 54.6875
L18.4062 0
L9.42188 0
z

M9.42188 75.9844
L18.4062 75.9844
L18.4062 64.5938
L9.42188 64.5938
z
" id="DejaVuSans-69"/>
      </defs>
      <g transform="translate(244.212710625 397.958125)scale(0.12 -0.12)">
       <use xlink:href="#DejaVuSans-4d"/>
       <use x="86.279296875" xlink:href="#DejaVuSans-61"/>
       <use x="147.55859375" xlink:href="#DejaVuSans-78"/>
       <use x="206.73828125" xlink:href="#DejaVuSans-69"/>
       <use x="234.521484375" xlink:href="#DejaVuSans-6d"/>
       <use x="331.93359375" xlink:href="#DejaVuSans-75"/>
       <use x="395.3125" xlink:href="#DejaVuSans-6d"/>
       <use x="492.724609375" xlink:href="#DejaVuSans-20"/>
       <use x="524.51171875" xlink:href="#DejaVuSans-53"/>
       <use x="587.98828125" xlink:href="#DejaVuSans-63"/>
       <use x="642.96875" xlink:href="#DejaVuSans-6f"/>
       <use x="704.150390625" xlink:href="#DejaVuSans-72"/>
       <use x="743.013671875" xlink:href="#DejaVuSans-65"/>
      </g>
     </g>
    </g>
    <g id="xtick_3">
     <g id="line2d_5">
      <g>
       <use style="stroke:#000000;stroke-width:0.5;" x="493.615648125" xlink:href="#m93b0483c22" y="384.84"/>
      </g>
     </g>
     <g id="line2d_6">
      <g>
       <use style="stroke:#000000;stroke-width:0.5;" x="493.615648125" xlink:href="#m741efc42ff" y="28.76"/>
      </g>
     </g>
     <g id="text_3">
      <!-- Minimum Score -->
      <g transform="translate(447.421273125 397.958125)scale(0.12 -0.12)">
       <use xlink:href="#DejaVuSans-4d"/>
       <use x="86.279296875" xlink:href="#DejaVuSans-69"/>
       <use x="114.0625" xlink:href="#DejaVuSans-6e"/>
       <use x="177.44140625" xlink:href="#DejaVuSans-69"/>
       <use x="205.224609375" xlink:href="#DejaVuSans-6d"/>
       <use x="302.63671875" xlink:href="#DejaVuSans-75"/>
       <use x="366.015625" xlink:href="#DejaVuSans-6d"/>
       <use x="463.427734375" xlink:href="#DejaVuSans-20"/>
       <use x="495.21484375" xlink:href="#DejaVuSans-53"/>
       <use x="558.69140625" xlink:href="#DejaVuSans-63"/>
       <use x="613.671875" xlink:href="#DejaVuSans-6f"/>
       <use x="674.853515625" xlink:href="#DejaVuSans-72"/>
       <use x="713.716796875" xlink:href="#DejaVuSans-65"/>
      </g>
     </g>
    </g>
    <g id="text_4">
     <!-- Comparison of Statistics for Tested Morphologies -->
     <defs>
      <path d="
M9.42188 75.9844
L18.4062 75.9844
L18.4062 0
L9.42188 0
z
" id="DejaVuSans-6c"/>
      <path d="
M45.4062 27.9844
Q45.4062 37.75 41.375 43.1094
Q37.3594 48.4844 30.0781 48.4844
Q22.8594 48.4844 18.8281 43.1094
Q14.7969 37.75 14.7969 27.9844
Q14.7969 18.2656 18.8281 12.8906
Q22.8594 7.51562 30.0781 7.51562
Q37.3594 7.51562 41.375 12.8906
Q45.4062 18.2656 45.4062 27.9844
M54.3906 6.78125
Q54.3906 -7.17188 48.1875 -13.9844
Q42 -20.7969 29.2031 -20.7969
Q24.4688 -20.7969 20.2656 -20.0938
Q16.0625 -19.3906 12.1094 -17.9219
L12.1094 -9.1875
Q16.0625 -11.3281 19.9219 -12.3438
Q23.7812 -13.375 27.7812 -13.375
Q36.625 -13.375 41.0156 -8.76562
Q45.4062 -4.15625 45.4062 5.17188
L45.4062 9.625
Q42.625 4.78125 38.2812 2.39062
Q33.9375 0 27.875 0
Q17.8281 0 11.6719 7.65625
Q5.51562 15.3281 5.51562 27.9844
Q5.51562 40.6719 11.6719 48.3281
Q17.8281 56 27.875 56
Q33.9375 56 38.2812 53.6094
Q42.625 51.2188 45.4062 46.3906
L45.4062 54.6875
L54.3906 54.6875
z
" id="DejaVuSans-67"/>
      <path d="
M54.8906 33.0156
L54.8906 0
L45.9062 0
L45.9062 32.7188
Q45.9062 40.4844 42.875 44.3281
Q39.8438 48.1875 33.7969 48.1875
Q26.5156 48.1875 22.3125 43.5469
Q18.1094 38.9219 18.1094 30.9062
L18.1094 0
L9.07812 0
L9.07812 75.9844
L18.1094 75.9844
L18.1094 46.1875
Q21.3438 51.125 25.7031 53.5625
Q30.0781 56 35.7969 56
Q45.2188 56 50.0469 50.1719
Q54.8906 44.3438 54.8906 33.0156" id="DejaVuSans-68"/>
      <path d="
M64.4062 67.2812
L64.4062 56.8906
Q59.4219 61.5312 53.7812 63.8125
Q48.1406 66.1094 41.7969 66.1094
Q29.2969 66.1094 22.6562 58.4688
Q16.0156 50.8281 16.0156 36.375
Q16.0156 21.9688 22.6562 14.3281
Q29.2969 6.6875 41.7969 6.6875
Q48.1406 6.6875 53.7812 8.98438
Q59.4219 11.2812 64.4062 15.9219
L64.4062 5.60938
Q59.2344 2.09375 53.4375 0.328125
Q47.6562 -1.42188 41.2188 -1.42188
Q24.6562 -1.42188 15.125 8.70312
Q5.60938 18.8438 5.60938 36.375
Q5.60938 53.9531 15.125 64.0781
Q24.6562 74.2188 41.2188 74.2188
Q47.75 74.2188 53.5312 72.4844
Q59.3281 70.75 64.4062 67.2812" id="DejaVuSans-43"/>
      <path d="
M37.1094 75.9844
L37.1094 68.5
L28.5156 68.5
Q23.6875 68.5 21.7969 66.5469
Q19.9219 64.5938 19.9219 59.5156
L19.9219 54.6875
L34.7188 54.6875
L34.7188 47.7031
L19.9219 47.7031
L19.9219 0
L10.8906 0
L10.8906 47.7031
L2.29688 47.7031
L2.29688 54.6875
L10.8906 54.6875
L10.8906 58.5
Q10.8906 67.625 15.1406 71.7969
Q19.3906 75.9844 28.6094 75.9844
z
" id="DejaVuSans-66"/>
      <path d="
M18.3125 70.2188
L18.3125 54.6875
L36.8125 54.6875
L36.8125 47.7031
L18.3125 47.7031
L18.3125 18.0156
Q18.3125 11.3281 20.1406 9.42188
Q21.9688 7.51562 27.5938 7.51562
L36.8125 7.51562
L36.8125 0
L27.5938 0
Q17.1875 0 13.2344 3.875
Q9.28125 7.76562 9.28125 18.0156
L9.28125 47.7031
L2.6875 47.7031
L2.6875 54.6875
L9.28125 54.6875
L9.28125 70.2188
z
" id="DejaVuSans-74"/>
      <path d="
M45.4062 46.3906
L45.4062 75.9844
L54.3906 75.9844
L54.3906 0
L45.4062 0
L45.4062 8.20312
Q42.5781 3.32812 38.25 0.953125
Q33.9375 -1.42188 27.875 -1.42188
Q17.9688 -1.42188 11.7344 6.48438
Q5.51562 14.4062 5.51562 27.2969
Q5.51562 40.1875 11.7344 48.0938
Q17.9688 56 27.875 56
Q33.9375 56 38.25 53.625
Q42.5781 51.2656 45.4062 46.3906
M14.7969 27.2969
Q14.7969 17.3906 18.875 11.75
Q22.9531 6.10938 30.0781 6.10938
Q37.2031 6.10938 41.2969 11.75
Q45.4062 17.3906 45.4062 27.2969
Q45.4062 37.2031 41.2969 42.8438
Q37.2031 48.4844 30.0781 48.4844
Q22.9531 48.4844 18.875 42.8438
Q14.7969 37.2031 14.7969 27.2969" id="DejaVuSans-64"/>
      <path d="
M18.1094 8.20312
L18.1094 -20.7969
L9.07812 -20.7969
L9.07812 54.6875
L18.1094 54.6875
L18.1094 46.3906
Q20.9531 51.2656 25.2656 53.625
Q29.5938 56 35.5938 56
Q45.5625 56 51.7812 48.0938
Q58.0156 40.1875 58.0156 27.2969
Q58.0156 14.4062 51.7812 6.48438
Q45.5625 -1.42188 35.5938 -1.42188
Q29.5938 -1.42188 25.2656 0.953125
Q20.9531 3.32812 18.1094 8.20312
M48.6875 27.2969
Q48.6875 37.2031 44.6094 42.8438
Q40.5312 48.4844 33.4062 48.4844
Q26.2656 48.4844 22.1875 42.8438
Q18.1094 37.2031 18.1094 27.2969
Q18.1094 17.3906 22.1875 11.75
Q26.2656 6.10938 33.4062 6.10938
Q40.5312 6.10938 44.6094 11.75
Q48.6875 17.3906 48.6875 27.2969" id="DejaVuSans-70"/>
      <path d="
M44.2812 53.0781
L44.2812 44.5781
Q40.4844 46.5312 36.375 47.5
Q32.2812 48.4844 27.875 48.4844
Q21.1875 48.4844 17.8438 46.4375
Q14.5 44.3906 14.5 40.2812
Q14.5 37.1562 16.8906 35.375
Q19.2812 33.5938 26.5156 31.9844
L29.5938 31.2969
Q39.1562 29.25 43.1875 25.5156
Q47.2188 21.7812 47.2188 15.0938
Q47.2188 7.46875 41.1875 3.01562
Q35.1562 -1.42188 24.6094 -1.42188
Q20.2188 -1.42188 15.4531 -0.5625
Q10.6875 0.296875 5.42188 2
L5.42188 11.2812
Q10.4062 8.6875 15.2344 7.39062
Q20.0625 6.10938 24.8125 6.10938
Q31.1562 6.10938 34.5625 8.28125
Q37.9844 10.4531 37.9844 14.4062
Q37.9844 18.0625 35.5156 20.0156
Q33.0625 21.9688 24.7031 23.7812
L21.5781 24.5156
Q13.2344 26.2656 9.51562 29.9062
Q5.8125 33.5469 5.8125 39.8906
Q5.8125 47.6094 11.2812 51.7969
Q16.75 56 26.8125 56
Q31.7812 56 36.1719 55.2656
Q40.5781 54.5469 44.2812 53.0781" id="DejaVuSans-73"/>
      <path d="
M-0.296875 72.9062
L61.375 72.9062
L61.375 64.5938
L35.5 64.5938
L35.5 0
L25.5938 0
L25.5938 64.5938
L-0.296875 64.5938
z
" id="DejaVuSans-54"/>
     </defs>
     <g transform="translate(154.053515625 414.571875)scale(0.12 -0.12)">
      <use xlink:href="#DejaVuSans-43"/>
      <use x="69.82421875" xlink:href="#DejaVuSans-6f"/>
      <use x="131.005859375" xlink:href="#DejaVuSans-6d"/>
      <use x="228.41796875" xlink:href="#DejaVuSans-70"/>
      <use x="291.89453125" xlink:href="#DejaVuSans-61"/>
      <use x="353.173828125" xlink:href="#DejaVuSans-72"/>
      <use x="394.287109375" xlink:href="#DejaVuSans-69"/>
      <use x="422.0703125" xlink:href="#DejaVuSans-73"/>
      <use x="474.169921875" xlink:href="#DejaVuSans-6f"/>
      <use x="535.3515625" xlink:href="#DejaVuSans-6e"/>
      <use x="598.73046875" xlink:href="#DejaVuSans-20"/>
      <use x="630.517578125" xlink:href="#DejaVuSans-6f"/>
      <use x="691.69921875" xlink:href="#DejaVuSans-66"/>
      <use x="726.904296875" xlink:href="#DejaVuSans-20"/>
      <use x="758.69140625" xlink:href="#DejaVuSans-53"/>
      <use x="822.16796875" xlink:href="#DejaVuSans-74"/>
      <use x="861.376953125" xlink:href="#DejaVuSans-61"/>
      <use x="922.65625" xlink:href="#DejaVuSans-74"/>
      <use x="961.865234375" xlink:href="#DejaVuSans-69"/>
      <use x="989.6484375" xlink:href="#DejaVuSans-73"/>
      <use x="1041.74804688" xlink:href="#DejaVuSans-74"/>
      <use x="1080.95703125" xlink:href="#DejaVuSans-69"/>
      <use x="1108.74023438" xlink:href="#DejaVuSans-63"/>
      <use x="1163.72070312" xlink:href="#DejaVuSans-73"/>
      <use x="1215.8203125" xlink:href="#DejaVuSans-20"/>
      <use x="1247.60742188" xlink:href="#DejaVuSans-66"/>
      <use x="1282.8125" xlink:href="#DejaVuSans-6f"/>
      <use x="1343.99414062" xlink:href="#DejaVuSans-72"/>
      <use x="1385.10742188" xlink:href="#DejaVuSans-20"/>
      <use x="1416.89453125" xlink:href="#DejaVuSans-54"/>
      <use x="1460.97851562" xlink:href="#DejaVuSans-65"/>
      <use x="1522.50195312" xlink:href="#DejaVuSans-73"/>
      <use x="1574.6015625" xlink:href="#DejaVuSans-74"/>
      <use x="1613.81054688" xlink:href="#DejaVuSans-65"/>
      <use x="1675.33398438" xlink:href="#DejaVuSans-64"/>
      <use x="1738.81054688" xlink:href="#DejaVuSans-20"/>
      <use x="1770.59765625" xlink:href="#DejaVuSans-4d"/>
      <use x="1856.87695312" xlink:href="#DejaVuSans-6f"/>
      <use x="1918.05859375" xlink:href="#DejaVuSans-72"/>
      <use x="1959.171875" xlink:href="#DejaVuSans-70"/>
      <use x="2022.6484375" xlink:href="#DejaVuSans-68"/>
      <use x="2086.02734375" xlink:href="#DejaVuSans-6f"/>
      <use x="2147.20898438" xlink:href="#DejaVuSans-6c"/>
      <use x="2174.9921875" xlink:href="#DejaVuSans-6f"/>
      <use x="2236.17382812" xlink:href="#DejaVuSans-67"/>
      <use x="2299.65039062" xlink:href="#DejaVuSans-69"/>
      <use x="2327.43359375" xlink:href="#DejaVuSans-65"/>
      <use x="2388.95703125" xlink:href="#DejaVuSans-73"/>
     </g>
    </g>
   </g>
   <g id="matplotlib.axis_2">
    <g id="ytick_1">
     <g id="line2d_7">
      <path clip-path="url(#p1a9379d394)" d="
M48.4116 384.84
L552.036 384.84" style="fill:none;stroke:#808080;stroke-linecap:square;stroke-width:0.5;"/>
     </g>
     <g id="line2d_8">
      <defs>
       <path d="
M0 0
L4 0" id="m728421d6d4" style="stroke:#000000;stroke-width:0.5;"/>
      </defs>
      <g>
       <use style="stroke:#000000;stroke-width:0.5;" x="48.4115625" xlink:href="#m728421d6d4" y="384.84"/>
      </g>
     </g>
     <g id="line2d_9">
      <defs>
       <path d="
M0 0
L-4 0" id="mcb0005524f" style="stroke:#000000;stroke-width:0.5;"/>
      </defs>
      <g>
       <use style="stroke:#000000;stroke-width:0.5;" x="552.03609375" xlink:href="#mcb0005524f" y="384.84"/>
      </g>
     </g>
     <g id="text_5">
      <!-- 0 -->
      <defs>
       <path d="
M31.7812 66.4062
Q24.1719 66.4062 20.3281 58.9062
Q16.5 51.4219 16.5 36.375
Q16.5 21.3906 20.3281 13.8906
Q24.1719 6.39062 31.7812 6.39062
Q39.4531 6.39062 43.2812 13.8906
Q47.125 21.3906 47.125 36.375
Q47.125 51.4219 43.2812 58.9062
Q39.4531 66.4062 31.7812 66.4062
M31.7812 74.2188
Q44.0469 74.2188 50.5156 64.5156
Q56.9844 54.8281 56.9844 36.375
Q56.9844 17.9688 50.5156 8.26562
Q44.0469 -1.42188 31.7812 -1.42188
Q19.5312 -1.42188 13.0625 8.26562
Q6.59375 17.9688 6.59375 36.375
Q6.59375 54.8281 13.0625 64.5156
Q19.5312 74.2188 31.7812 74.2188" id="DejaVuSans-30"/>
      </defs>
      <g transform="translate(38.3646875 388.15125)scale(0.12 -0.12)">
       <use xlink:href="#DejaVuSans-30"/>
      </g>
     </g>
    </g>
    <g id="ytick_2">
     <g id="line2d_10">
      <path clip-path="url(#p1a9379d394)" d="
M48.4116 340.33
L552.036 340.33" style="fill:none;stroke:#808080;stroke-linecap:square;stroke-width:0.5;"/>
     </g>
     <g id="line2d_11">
      <g>
       <use style="stroke:#000000;stroke-width:0.5;" x="48.4115625" xlink:href="#m728421d6d4" y="340.33"/>
      </g>
     </g>
     <g id="line2d_12">
      <g>
       <use style="stroke:#000000;stroke-width:0.5;" x="552.03609375" xlink:href="#mcb0005524f" y="340.33"/>
      </g>
     </g>
     <g id="text_6">
      <!-- 10 -->
      <defs>
       <path d="
M12.4062 8.29688
L28.5156 8.29688
L28.5156 63.9219
L10.9844 60.4062
L10.9844 69.3906
L28.4219 72.9062
L38.2812 72.9062
L38.2812 8.29688
L54.3906 8.29688
L54.3906 0
L12.4062 0
z
" id="DejaVuSans-31"/>
      </defs>
      <g transform="translate(31.2565625 343.64125)scale(0.12 -0.12)">
       <use xlink:href="#DejaVuSans-31"/>
       <use x="63.623046875" xlink:href="#DejaVuSans-30"/>
      </g>
     </g>
    </g>
    <g id="ytick_3">
     <g id="line2d_13">
      <path clip-path="url(#p1a9379d394)" d="
M48.4116 295.82
L552.036 295.82" style="fill:none;stroke:#808080;stroke-linecap:square;stroke-width:0.5;"/>
     </g>
     <g id="line2d_14">
      <g>
       <use style="stroke:#000000;stroke-width:0.5;" x="48.4115625" xlink:href="#m728421d6d4" y="295.82"/>
      </g>
     </g>
     <g id="line2d_15">
      <g>
       <use style="stroke:#000000;stroke-width:0.5;" x="552.03609375" xlink:href="#mcb0005524f" y="295.82"/>
      </g>
     </g>
     <g id="text_7">
      <!-- 20 -->
      <defs>
       <path d="
M19.1875 8.29688
L53.6094 8.29688
L53.6094 0
L7.32812 0
L7.32812 8.29688
Q12.9375 14.1094 22.625 23.8906
Q32.3281 33.6875 34.8125 36.5312
Q39.5469 41.8438 41.4219 45.5312
Q43.3125 49.2188 43.3125 52.7812
Q43.3125 58.5938 39.2344 62.25
Q35.1562 65.9219 28.6094 65.9219
Q23.9688 65.9219 18.8125 64.3125
Q13.6719 62.7031 7.8125 59.4219
L7.8125 69.3906
Q13.7656 71.7812 18.9375 73
Q24.125 74.2188 28.4219 74.2188
Q39.75 74.2188 46.4844 68.5469
Q53.2188 62.8906 53.2188 53.4219
Q53.2188 48.9219 51.5312 44.8906
Q49.8594 40.875 45.4062 35.4062
Q44.1875 33.9844 37.6406 27.2188
Q31.1094 20.4531 19.1875 8.29688" id="DejaVuSans-32"/>
      </defs>
      <g transform="translate(30.8178125 299.13125)scale(0.12 -0.12)">
       <use xlink:href="#DejaVuSans-32"/>
       <use x="63.623046875" xlink:href="#DejaVuSans-30"/>
      </g>
     </g>
    </g>
    <g id="ytick_4">
     <g id="line2d_16">
      <path clip-path="url(#p1a9379d394)" d="
M48.4116 251.31
L552.036 251.31" style="fill:none;stroke:#808080;stroke-linecap:square;stroke-width:0.5;"/>
     </g>
     <g id="line2d_17">
      <g>
       <use style="stroke:#000000;stroke-width:0.5;" x="48.4115625" xlink:href="#m728421d6d4" y="251.31"/>
      </g>
     </g>
     <g id="line2d_18">
      <g>
       <use style="stroke:#000000;stroke-width:0.5;" x="552.03609375" xlink:href="#mcb0005524f" y="251.31"/>
      </g>
     </g>
     <g id="text_8">
      <!-- 30 -->
      <defs>
       <path d="
M40.5781 39.3125
Q47.6562 37.7969 51.625 33
Q55.6094 28.2188 55.6094 21.1875
Q55.6094 10.4062 48.1875 4.48438
Q40.7656 -1.42188 27.0938 -1.42188
Q22.5156 -1.42188 17.6562 -0.515625
Q12.7969 0.390625 7.625 2.20312
L7.625 11.7188
Q11.7188 9.32812 16.5938 8.10938
Q21.4844 6.89062 26.8125 6.89062
Q36.0781 6.89062 40.9375 10.5469
Q45.7969 14.2031 45.7969 21.1875
Q45.7969 27.6406 41.2812 31.2656
Q36.7656 34.9062 28.7188 34.9062
L20.2188 34.9062
L20.2188 43.0156
L29.1094 43.0156
Q36.375 43.0156 40.2344 45.9219
Q44.0938 48.8281 44.0938 54.2969
Q44.0938 59.9062 40.1094 62.9062
Q36.1406 65.9219 28.7188 65.9219
Q24.6562 65.9219 20.0156 65.0312
Q15.375 64.1562 9.8125 62.3125
L9.8125 71.0938
Q15.4375 72.6562 20.3438 73.4375
Q25.25 74.2188 29.5938 74.2188
Q40.8281 74.2188 47.3594 69.1094
Q53.9062 64.0156 53.9062 55.3281
Q53.9062 49.2656 50.4375 45.0938
Q46.9688 40.9219 40.5781 39.3125" id="DejaVuSans-33"/>
      </defs>
      <g transform="translate(30.8534375 254.62125)scale(0.12 -0.12)">
       <use xlink:href="#DejaVuSans-33"/>
       <use x="63.623046875" xlink:href="#DejaVuSans-30"/>
      </g>
     </g>
    </g>
    <g id="ytick_5">
     <g id="line2d_19">
      <path clip-path="url(#p1a9379d394)" d="
M48.4116 206.8
L552.036 206.8" style="fill:none;stroke:#808080;stroke-linecap:square;stroke-width:0.5;"/>
     </g>
     <g id="line2d_20">
      <g>
       <use style="stroke:#000000;stroke-width:0.5;" x="48.4115625" xlink:href="#m728421d6d4" y="206.8"/>
      </g>
     </g>
     <g id="line2d_21">
      <g>
       <use style="stroke:#000000;stroke-width:0.5;" x="552.03609375" xlink:href="#mcb0005524f" y="206.8"/>
      </g>
     </g>
     <g id="text_9">
      <!-- 40 -->
      <defs>
       <path d="
M37.7969 64.3125
L12.8906 25.3906
L37.7969 25.3906
z

M35.2031 72.9062
L47.6094 72.9062
L47.6094 25.3906
L58.0156 25.3906
L58.0156 17.1875
L47.6094 17.1875
L47.6094 0
L37.7969 0
L37.7969 17.1875
L4.89062 17.1875
L4.89062 26.7031
z
" id="DejaVuSans-34"/>
      </defs>
      <g transform="translate(30.5253125 210.11125)scale(0.12 -0.12)">
       <use xlink:href="#DejaVuSans-34"/>
       <use x="63.623046875" xlink:href="#DejaVuSans-30"/>
      </g>
     </g>
    </g>
    <g id="ytick_6">
     <g id="line2d_22">
      <path clip-path="url(#p1a9379d394)" d="
M48.4116 162.29
L552.036 162.29" style="fill:none;stroke:#808080;stroke-linecap:square;stroke-width:0.5;"/>
     </g>
     <g id="line2d_23">
      <g>
       <use style="stroke:#000000;stroke-width:0.5;" x="48.4115625" xlink:href="#m728421d6d4" y="162.29"/>
      </g>
     </g>
     <g id="line2d_24">
      <g>
       <use style="stroke:#000000;stroke-width:0.5;" x="552.03609375" xlink:href="#mcb0005524f" y="162.29"/>
      </g>
     </g>
     <g id="text_10">
      <!-- 50 -->
      <defs>
       <path d="
M10.7969 72.9062
L49.5156 72.9062
L49.5156 64.5938
L19.8281 64.5938
L19.8281 46.7344
Q21.9688 47.4688 24.1094 47.8281
Q26.2656 48.1875 28.4219 48.1875
Q40.625 48.1875 47.75 41.5
Q54.8906 34.8125 54.8906 23.3906
Q54.8906 11.625 47.5625 5.09375
Q40.2344 -1.42188 26.9062 -1.42188
Q22.3125 -1.42188 17.5469 -0.640625
Q12.7969 0.140625 7.71875 1.70312
L7.71875 11.625
Q12.1094 9.23438 16.7969 8.0625
Q21.4844 6.89062 26.7031 6.89062
Q35.1562 6.89062 40.0781 11.3281
Q45.0156 15.7656 45.0156 23.3906
Q45.0156 31 40.0781 35.4375
Q35.1562 39.8906 26.7031 39.8906
Q22.75 39.8906 18.8125 39.0156
Q14.8906 38.1406 10.7969 36.2812
z
" id="DejaVuSans-35"/>
      </defs>
      <g transform="translate(30.8646875 165.60125)scale(0.12 -0.12)">
       <use xlink:href="#DejaVuSans-35"/>
       <use x="63.623046875" xlink:href="#DejaVuSans-30"/>
      </g>
     </g>
    </g>
    <g id="ytick_7">
     <g id="line2d_25">
      <path clip-path="url(#p1a9379d394)" d="
M48.4116 117.78
L552.036 117.78" style="fill:none;stroke:#808080;stroke-linecap:square;stroke-width:0.5;"/>
     </g>
     <g id="line2d_26">
      <g>
       <use style="stroke:#000000;stroke-width:0.5;" x="48.4115625" xlink:href="#m728421d6d4" y="117.78"/>
      </g>
     </g>
     <g id="line2d_27">
      <g>
       <use style="stroke:#000000;stroke-width:0.5;" x="552.03609375" xlink:href="#mcb0005524f" y="117.78"/>
      </g>
     </g>
     <g id="text_11">
      <!-- 60 -->
      <defs>
       <path d="
M33.0156 40.375
Q26.375 40.375 22.4844 35.8281
Q18.6094 31.2969 18.6094 23.3906
Q18.6094 15.5312 22.4844 10.9531
Q26.375 6.39062 33.0156 6.39062
Q39.6562 6.39062 43.5312 10.9531
Q47.4062 15.5312 47.4062 23.3906
Q47.4062 31.2969 43.5312 35.8281
Q39.6562 40.375 33.0156 40.375
M52.5938 71.2969
L52.5938 62.3125
Q48.875 64.0625 45.0938 64.9844
Q41.3125 65.9219 37.5938 65.9219
Q27.8281 65.9219 22.6719 59.3281
Q17.5312 52.7344 16.7969 39.4062
Q19.6719 43.6562 24.0156 45.9219
Q28.375 48.1875 33.5938 48.1875
Q44.5781 48.1875 50.9531 41.5156
Q57.3281 34.8594 57.3281 23.3906
Q57.3281 12.1562 50.6875 5.35938
Q44.0469 -1.42188 33.0156 -1.42188
Q20.3594 -1.42188 13.6719 8.26562
Q6.98438 17.9688 6.98438 36.375
Q6.98438 53.6562 15.1875 63.9375
Q23.3906 74.2188 37.2031 74.2188
Q40.9219 74.2188 44.7031 73.4844
Q48.4844 72.75 52.5938 71.2969" id="DejaVuSans-36"/>
      </defs>
      <g transform="translate(30.7765625 121.09125)scale(0.12 -0.12)">
       <use xlink:href="#DejaVuSans-36"/>
       <use x="63.623046875" xlink:href="#DejaVuSans-30"/>
      </g>
     </g>
    </g>
    <g id="ytick_8">
     <g id="line2d_28">
      <path clip-path="url(#p1a9379d394)" d="
M48.4116 73.27
L552.036 73.27" style="fill:none;stroke:#808080;stroke-linecap:square;stroke-width:0.5;"/>
     </g>
     <g id="line2d_29">
      <g>
       <use style="stroke:#000000;stroke-width:0.5;" x="48.4115625" xlink:href="#m728421d6d4" y="73.27"/>
      </g>
     </g>
     <g id="line2d_30">
      <g>
       <use style="stroke:#000000;stroke-width:0.5;" x="552.03609375" xlink:href="#mcb0005524f" y="73.27"/>
      </g>
     </g>
     <g id="text_12">
      <!-- 70 -->
      <defs>
       <path d="
M8.20312 72.9062
L55.0781 72.9062
L55.0781 68.7031
L28.6094 0
L18.3125 0
L43.2188 64.5938
L8.20312 64.5938
z
" id="DejaVuSans-37"/>
      </defs>
      <g transform="translate(30.9228125 76.58125)scale(0.12 -0.12)">
       <use xlink:href="#DejaVuSans-37"/>
       <use x="63.623046875" xlink:href="#DejaVuSans-30"/>
      </g>
     </g>
    </g>
    <g id="ytick_9">
     <g id="line2d_31">
      <path clip-path="url(#p1a9379d394)" d="
M48.4116 28.76
L552.036 28.76" style="fill:none;stroke:#808080;stroke-linecap:square;stroke-width:0.5;"/>
     </g>
     <g id="line2d_32">
      <g>
       <use style="stroke:#000000;stroke-width:0.5;" x="48.4115625" xlink:href="#m728421d6d4" y="28.76"/>
      </g>
     </g>
     <g id="line2d_33">
      <g>
       <use style="stroke:#000000;stroke-width:0.5;" x="552.03609375" xlink:href="#mcb0005524f" y="28.76"/>
      </g>
     </g>
     <g id="text_13">
      <!-- 80 -->
      <defs>
       <path d="
M31.7812 34.625
Q24.75 34.625 20.7188 30.8594
Q16.7031 27.0938 16.7031 20.5156
Q16.7031 13.9219 20.7188 10.1562
Q24.75 6.39062 31.7812 6.39062
Q38.8125 6.39062 42.8594 10.1719
Q46.9219 13.9688 46.9219 20.5156
Q46.9219 27.0938 42.8906 30.8594
Q38.875 34.625 31.7812 34.625
M21.9219 38.8125
Q15.5781 40.375 12.0312 44.7188
Q8.5 49.0781 8.5 55.3281
Q8.5 64.0625 14.7188 69.1406
Q20.9531 74.2188 31.7812 74.2188
Q42.6719 74.2188 48.875 69.1406
Q55.0781 64.0625 55.0781 55.3281
Q55.0781 49.0781 51.5312 44.7188
Q48 40.375 41.7031 38.8125
Q48.8281 37.1562 52.7969 32.3125
Q56.7812 27.4844 56.7812 20.5156
Q56.7812 9.90625 50.3125 4.23438
Q43.8438 -1.42188 31.7812 -1.42188
Q19.7344 -1.42188 13.25 4.23438
Q6.78125 9.90625 6.78125 20.5156
Q6.78125 27.4844 10.7812 32.3125
Q14.7969 37.1562 21.9219 38.8125
M18.3125 54.3906
Q18.3125 48.7344 21.8438 45.5625
Q25.3906 42.3906 31.7812 42.3906
Q38.1406 42.3906 41.7188 45.5625
Q45.3125 48.7344 45.3125 54.3906
Q45.3125 60.0625 41.7188 63.2344
Q38.1406 66.4062 31.7812 66.4062
Q25.3906 66.4062 21.8438 63.2344
Q18.3125 60.0625 18.3125 54.3906" id="DejaVuSans-38"/>
      </defs>
      <g transform="translate(30.7521875 32.07125)scale(0.12 -0.12)">
       <use xlink:href="#DejaVuSans-38"/>
       <use x="63.623046875" xlink:href="#DejaVuSans-30"/>
      </g>
     </g>
    </g>
    <g id="text_14">
     <!-- Proportion of Total Box Value Collected -->
     <defs>
      <path d="
M19.6719 64.7969
L19.6719 37.4062
L32.0781 37.4062
Q38.9688 37.4062 42.7188 40.9688
Q46.4844 44.5312 46.4844 51.125
Q46.4844 57.6719 42.7188 61.2344
Q38.9688 64.7969 32.0781 64.7969
z

M9.8125 72.9062
L32.0781 72.9062
Q44.3438 72.9062 50.6094 67.3594
Q56.8906 61.8125 56.8906 51.125
Q56.8906 40.3281 50.6094 34.8125
Q44.3438 29.2969 32.0781 29.2969
L19.6719 29.2969
L19.6719 0
L9.8125 0
z
" id="DejaVuSans-50"/>
      <path d="
M28.6094 0
L0.78125 72.9062
L11.0781 72.9062
L34.1875 11.5312
L57.3281 72.9062
L67.5781 72.9062
L39.7969 0
z
" id="DejaVuSans-56"/>
      <path d="
M19.6719 34.8125
L19.6719 8.10938
L35.5 8.10938
Q43.4531 8.10938 47.2812 11.4062
Q51.125 14.7031 51.125 21.4844
Q51.125 28.3281 47.2812 31.5625
Q43.4531 34.8125 35.5 34.8125
z

M19.6719 64.7969
L19.6719 42.8281
L34.2812 42.8281
Q41.5 42.8281 45.0312 45.5312
Q48.5781 48.25 48.5781 53.8125
Q48.5781 59.3281 45.0312 62.0625
Q41.5 64.7969 34.2812 64.7969
z

M9.8125 72.9062
L35.0156 72.9062
Q46.2969 72.9062 52.3906 68.2188
Q58.5 63.5312 58.5 54.8906
Q58.5 48.1875 55.375 44.2344
Q52.25 40.2812 46.1875 39.3125
Q53.4688 37.75 57.5 32.7812
Q61.5312 27.8281 61.5312 20.4062
Q61.5312 10.6406 54.8906 5.3125
Q48.25 0 35.9844 0
L9.8125 0
z
" id="DejaVuSans-42"/>
     </defs>
     <g transform="translate(23.0296875 322.2071875)rotate(-90.0)scale(0.12 -0.12)">
      <use xlink:href="#DejaVuSans-50"/>
      <use x="58.552734375" xlink:href="#DejaVuSans-72"/>
      <use x="97.416015625" xlink:href="#DejaVuSans-6f"/>
      <use x="158.59765625" xlink:href="#DejaVuSans-70"/>
      <use x="222.07421875" xlink:href="#DejaVuSans-6f"/>
      <use x="283.255859375" xlink:href="#DejaVuSans-72"/>
      <use x="324.369140625" xlink:href="#DejaVuSans-74"/>
      <use x="363.578125" xlink:href="#DejaVuSans-69"/>
      <use x="391.361328125" xlink:href="#DejaVuSans-6f"/>
      <use x="452.54296875" xlink:href="#DejaVuSans-6e"/>
      <use x="515.921875" xlink:href="#DejaVuSans-20"/>
      <use x="547.708984375" xlink:href="#DejaVuSans-6f"/>
      <use x="608.890625" xlink:href="#DejaVuSans-66"/>
      <use x="644.095703125" xlink:href="#DejaVuSans-20"/>
      <use x="675.8828125" xlink:href="#DejaVuSans-54"/>
      <use x="719.966796875" xlink:href="#DejaVuSans-6f"/>
      <use x="781.1484375" xlink:href="#DejaVuSans-74"/>
      <use x="820.357421875" xlink:href="#DejaVuSans-61"/>
      <use x="881.63671875" xlink:href="#DejaVuSans-6c"/>
      <use x="909.419921875" xlink:href="#DejaVuSans-20"/>
      <use x="941.20703125" xlink:href="#DejaVuSans-42"/>
      <use x="1009.81054688" xlink:href="#DejaVuSans-6f"/>
      <use x="1067.8671875" xlink:href="#DejaVuSans-78"/>
      <use x="1127.046875" xlink:href="#DejaVuSans-20"/>
      <use x="1158.83398438" xlink:href="#DejaVuSans-56"/>
      <use x="1219.4921875" xlink:href="#DejaVuSans-61"/>
      <use x="1280.77148438" xlink:href="#DejaVuSans-6c"/>
      <use x="1308.5546875" xlink:href="#DejaVuSans-75"/>
      <use x="1371.93359375" xlink:href="#DejaVuSans-65"/>
      <use x="1433.45703125" xlink:href="#DejaVuSans-20"/>
      <use x="1465.24414062" xlink:href="#DejaVuSans-43"/>
      <use x="1535.06835938" xlink:href="#DejaVuSans-6f"/>
      <use x="1596.25" xlink:href="#DejaVuSans-6c"/>
      <use x="1624.03320312" xlink:href="#DejaVuSans-6c"/>
      <use x="1651.81640625" xlink:href="#DejaVuSans-65"/>
      <use x="1713.33984375" xlink:href="#DejaVuSans-63"/>
      <use x="1768.3203125" xlink:href="#DejaVuSans-74"/>
      <use x="1807.52929688" xlink:href="#DejaVuSans-65"/>
      <use x="1869.05273438" xlink:href="#DejaVuSans-64"/>
     </g>
    </g>
   </g>
   <g id="patch_3">
    <path clip-path="url(#p1a9379d394)" d="
M58.4841 384.84
L78.629 384.84
L78.629 214.798
L58.4841 214.798
z
" style="fill:#00868b;"/>
   </g>
   <g id="patch_4">
    <path clip-path="url(#p1a9379d394)" d="
M259.934 384.84
L280.079 384.84
L280.079 137.253
L259.934 137.253
z
" style="fill:#00868b;"/>
   </g>
   <g id="patch_5">
    <path clip-path="url(#p1a9379d394)" d="
M461.384 384.84
L481.529 384.84
L481.529 290.256
L461.384 290.256
z
" style="fill:#00868b;"/>
   </g>
   <g id="patch_6">
    <path clip-path="url(#p1a9379d394)" d="
M78.629 384.84
L98.774 384.84
L98.774 164.763
L78.629 164.763
z
" style="fill:#ee4000;"/>
   </g>
   <g id="patch_7">
    <path clip-path="url(#p1a9379d394)" d="
M280.079 384.84
L300.224 384.84
L300.224 39.8875
L280.079 39.8875
z
" style="fill:#ee4000;"/>
   </g>
   <g id="patch_8">
    <path clip-path="url(#p1a9379d394)" d="
M481.529 384.84
L501.674 384.84
L501.674 231.281
L481.529 231.281
z
" style="fill:#ee4000;"/>
   </g>
   <g id="patch_9">
    <path clip-path="url(#p1a9379d394)" d="
M98.774 384.84
L118.919 384.84
L118.919 285.929
L98.774 285.929
z
" style="fill:#fff68f;"/>
   </g>
   <g id="patch_10">
    <path clip-path="url(#p1a9379d394)" d="
M300.224 384.84
L320.369 384.84
L320.369 142.261
L300.224 142.261
z
" style="fill:#fff68f;"/>
   </g>
   <g id="patch_11">
    <path clip-path="url(#p1a9379d394)" d="
M501.674 384.84
L521.819 384.84
L521.819 340.33
L501.674 340.33
z
" style="fill:#fff68f;"/>
   </g>
   <g id="patch_12">
    <path d="
M48.4116 28.76
L552.036 28.76" style="fill:none;stroke:#000000;"/>
   </g>
   <g id="patch_13">
    <path d="
M552.036 384.84
L552.036 28.76" style="fill:none;stroke:#000000;"/>
   </g>
   <g id="patch_14">
    <path d="
M48.4116 384.84
L552.036 384.84" style="fill:none;stroke:#000000;"/>
   </g>
   <g id="patch_15">
    <path d="
M48.4116 384.84
L48.4116 28.76" style="fill:none;stroke:#000000;"/>
   </g>
   <g id="text_15">
    <!-- 38 -->
    <g style="fill:#ffffff;" transform="translate(71.86779375 234.827390625)rotate(-90.0)scale(0.12 -0.12)">
     <use xlink:href="#DejaVuSans-33"/>
     <use x="63.623046875" xlink:href="#DejaVuSans-38"/>
    </g>
   </g>
   <g id="text_16">
    <!-- 55 -->
    <g style="fill:#ffffff;" transform="translate(273.31760625 157.282625)rotate(-90.0)scale(0.12 -0.12)">
     <use xlink:href="#DejaVuSans-35"/>
     <use x="63.623046875" xlink:href="#DejaVuSans-35"/>
    </g>
   </g>
   <g id="text_17">
    <!-- 21 -->
    <g style="fill:#ffffff;" transform="translate(474.76741875 310.28575)rotate(-90.0)scale(0.12 -0.12)">
     <use xlink:href="#DejaVuSans-32"/>
     <use x="63.623046875" xlink:href="#DejaVuSans-31"/>
    </g>
   </g>
   <g id="text_18">
    <!-- 49 -->
    <defs>
     <path d="
M10.9844 1.51562
L10.9844 10.5
Q14.7031 8.73438 18.5 7.8125
Q22.3125 6.89062 25.9844 6.89062
Q35.75 6.89062 40.8906 13.4531
Q46.0469 20.0156 46.7812 33.4062
Q43.9531 29.2031 39.5938 26.9531
Q35.25 24.7031 29.9844 24.7031
Q19.0469 24.7031 12.6719 31.3125
Q6.29688 37.9375 6.29688 49.4219
Q6.29688 60.6406 12.9375 67.4219
Q19.5781 74.2188 30.6094 74.2188
Q43.2656 74.2188 49.9219 64.5156
Q56.5938 54.8281 56.5938 36.375
Q56.5938 19.1406 48.4062 8.85938
Q40.2344 -1.42188 26.4219 -1.42188
Q22.7031 -1.42188 18.8906 -0.6875
Q15.0938 0.046875 10.9844 1.51562
M30.6094 32.4219
Q37.25 32.4219 41.125 36.9531
Q45.0156 41.5 45.0156 49.4219
Q45.0156 57.2812 41.125 61.8438
Q37.25 66.4062 30.6094 66.4062
Q23.9688 66.4062 20.0938 61.8438
Q16.2188 57.2812 16.2188 49.4219
Q16.2188 41.5 20.0938 36.9531
Q23.9688 32.4219 30.6094 32.4219" id="DejaVuSans-39"/>
    </defs>
    <g style="fill:#ffffff;" transform="translate(92.012775 184.792277778)rotate(-90.0)scale(0.12 -0.12)">
     <use xlink:href="#DejaVuSans-34"/>
     <use x="63.623046875" xlink:href="#DejaVuSans-39"/>
    </g>
   </g>
   <g id="text_19">
    <!-- 77 -->
    <g style="fill:#ffffff;" transform="translate(293.4625875 59.917)rotate(-90.0)scale(0.12 -0.12)">
     <use xlink:href="#DejaVuSans-37"/>
     <use x="63.623046875" xlink:href="#DejaVuSans-37"/>
    </g>
   </g>
   <g id="text_20">
    <!-- 34 -->
    <g style="fill:#ffffff;" transform="translate(494.9124 251.31)rotate(-90.0)scale(0.12 -0.12)">
     <use xlink:href="#DejaVuSans-33"/>
     <use x="63.623046875" xlink:href="#DejaVuSans-34"/>
    </g>
   </g>
   <g id="text_21">
    <!-- 22 -->
    <g transform="translate(112.15775625 305.958388889)rotate(-90.0)scale(0.12 -0.12)">
     <use xlink:href="#DejaVuSans-32"/>
     <use x="63.623046875" xlink:href="#DejaVuSans-32"/>
    </g>
   </g>
   <g id="text_22">
    <!-- 54 -->
    <g transform="translate(313.60756875 162.29)rotate(-90.0)scale(0.12 -0.12)">
     <use xlink:href="#DejaVuSans-35"/>
     <use x="63.623046875" xlink:href="#DejaVuSans-34"/>
    </g>
   </g>
   <g id="text_23">
    <!-- 10 -->
    <g transform="translate(515.05738125 360.3595)rotate(-90.0)scale(0.12 -0.12)">
     <use xlink:href="#DejaVuSans-31"/>
     <use x="63.623046875" xlink:href="#DejaVuSans-30"/>
    </g>
   </g>
   <g id="text_24">
    <!-- Mean, Max and Min Scores For Heterogeneous Co-operative Task -->
    <defs>
     <path d="
M11.7188 12.4062
L22.0156 12.4062
L22.0156 4
L14.0156 -11.625
L7.71875 -11.625
L11.7188 4
z
" id="DejaVuSans-2c"/>
     <path d="
M4.89062 31.3906
L31.2031 31.3906
L31.2031 23.3906
L4.89062 23.3906
z
" id="DejaVuSans-2d"/>
     <path d="
M9.07812 75.9844
L18.1094 75.9844
L18.1094 31.1094
L44.9219 54.6875
L56.3906 54.6875
L27.3906 29.1094
L57.625 0
L45.9062 0
L18.1094 26.7031
L18.1094 0
L9.07812 0
z
" id="DejaVuSans-6b"/>
     <path d="
M9.8125 72.9062
L51.7031 72.9062
L51.7031 64.5938
L19.6719 64.5938
L19.6719 43.1094
L48.5781 43.1094
L48.5781 34.8125
L19.6719 34.8125
L19.6719 0
L9.8125 0
z
" id="DejaVuSans-46"/>
     <path d="
M2.98438 54.6875
L12.5 54.6875
L29.5938 8.79688
L46.6875 54.6875
L56.2031 54.6875
L35.6875 0
L23.4844 0
z
" id="DejaVuSans-76"/>
     <path d="
M9.8125 72.9062
L19.6719 72.9062
L19.6719 43.0156
L55.5156 43.0156
L55.5156 72.9062
L65.375 72.9062
L65.375 0
L55.5156 0
L55.5156 34.7188
L19.6719 34.7188
L19.6719 0
L9.8125 0
z
" id="DejaVuSans-48"/>
    </defs>
    <g transform="translate(66.514078125 23.76)scale(0.144 -0.144)">
     <use xlink:href="#DejaVuSans-4d"/>
     <use x="86.279296875" xlink:href="#DejaVuSans-65"/>
     <use x="147.802734375" xlink:href="#DejaVuSans-61"/>
     <use x="209.08203125" xlink:href="#DejaVuSans-6e"/>
     <use x="272.4609375" xlink:href="#DejaVuSans-2c"/>
     <use x="304.248046875" xlink:href="#DejaVuSans-20"/>
     <use x="336.03515625" xlink:href="#DejaVuSans-4d"/>
     <use x="422.314453125" xlink:href="#DejaVuSans-61"/>
     <use x="483.59375" xlink:href="#DejaVuSans-78"/>
     <use x="542.7734375" xlink:href="#DejaVuSans-20"/>
     <use x="574.560546875" xlink:href="#DejaVuSans-61"/>
     <use x="635.83984375" xlink:href="#DejaVuSans-6e"/>
     <use x="699.21875" xlink:href="#DejaVuSans-64"/>
     <use x="762.6953125" xlink:href="#DejaVuSans-20"/>
     <use x="794.482421875" xlink:href="#DejaVuSans-4d"/>
     <use x="880.76171875" xlink:href="#DejaVuSans-69"/>
     <use x="908.544921875" xlink:href="#DejaVuSans-6e"/>
     <use x="971.923828125" xlink:href="#DejaVuSans-20"/>
     <use x="1003.7109375" xlink:href="#DejaVuSans-53"/>
     <use x="1067.1875" xlink:href="#DejaVuSans-63"/>
     <use x="1122.16796875" xlink:href="#DejaVuSans-6f"/>
     <use x="1183.34960938" xlink:href="#DejaVuSans-72"/>
     <use x="1222.21289062" xlink:href="#DejaVuSans-65"/>
     <use x="1283.73632812" xlink:href="#DejaVuSans-73"/>
     <use x="1335.8359375" xlink:href="#DejaVuSans-20"/>
     <use x="1367.62304688" xlink:href="#DejaVuSans-46"/>
     <use x="1421.51757812" xlink:href="#DejaVuSans-6f"/>
     <use x="1482.69921875" xlink:href="#DejaVuSans-72"/>
     <use x="1523.8125" xlink:href="#DejaVuSans-20"/>
     <use x="1555.59960938" xlink:href="#DejaVuSans-48"/>
     <use x="1630.79492188" xlink:href="#DejaVuSans-65"/>
     <use x="1692.31835938" xlink:href="#DejaVuSans-74"/>
     <use x="1731.52734375" xlink:href="#DejaVuSans-65"/>
     <use x="1793.05078125" xlink:href="#DejaVuSans-72"/>
     <use x="1831.9140625" xlink:href="#DejaVuSans-6f"/>
     <use x="1893.09570312" xlink:href="#DejaVuSans-67"/>
     <use x="1956.57226562" xlink:href="#DejaVuSans-65"/>
     <use x="2018.09570312" xlink:href="#DejaVuSans-6e"/>
     <use x="2081.47460938" xlink:href="#DejaVuSans-65"/>
     <use x="2142.99804688" xlink:href="#DejaVuSans-6f"/>
     <use x="2204.1796875" xlink:href="#DejaVuSans-75"/>
     <use x="2267.55859375" xlink:href="#DejaVuSans-73"/>
     <use x="2319.65820312" xlink:href="#DejaVuSans-20"/>
     <use x="2351.4453125" xlink:href="#DejaVuSans-43"/>
     <use x="2421.26953125" xlink:href="#DejaVuSans-6f"/>
     <use x="2484.32617188" xlink:href="#DejaVuSans-2d"/>
     <use x="2522.28515625" xlink:href="#DejaVuSans-6f"/>
     <use x="2583.46679688" xlink:href="#DejaVuSans-70"/>
     <use x="2646.94335938" xlink:href="#DejaVuSans-65"/>
     <use x="2708.46679688" xlink:href="#DejaVuSans-72"/>
     <use x="2749.58007812" xlink:href="#DejaVuSans-61"/>
     <use x="2810.859375" xlink:href="#DejaVuSans-74"/>
     <use x="2850.06835938" xlink:href="#DejaVuSans-69"/>
     <use x="2877.8515625" xlink:href="#DejaVuSans-76"/>
     <use x="2937.03125" xlink:href="#DejaVuSans-65"/>
     <use x="2998.5546875" xlink:href="#DejaVuSans-20"/>
     <use x="3030.34179688" xlink:href="#DejaVuSans-54"/>
     <use x="3074.92578125" xlink:href="#DejaVuSans-61"/>
     <use x="3136.20507812" xlink:href="#DejaVuSans-73"/>
     <use x="3188.3046875" xlink:href="#DejaVuSans-6b"/>
    </g>
   </g>
   <g id="legend_1">
    <g id="patch_16">
     <path d="
M361.68 110.846
L547.036 110.846
L547.036 33.76
L361.68 33.76
L361.68 110.846
z
" style="fill:#ffffff;stroke:#000000;"/>
    </g>
    <g id="text_25">
     <!-- Sensor Gain Values -->
     <defs>
      <path d="
M59.5156 10.4062
L59.5156 29.9844
L43.4062 29.9844
L43.4062 38.0938
L69.2812 38.0938
L69.2812 6.78125
Q63.5781 2.73438 56.6875 0.65625
Q49.8125 -1.42188 42 -1.42188
Q24.9062 -1.42188 15.25 8.5625
Q5.60938 18.5625 5.60938 36.375
Q5.60938 54.25 15.25 64.2344
Q24.9062 74.2188 42 74.2188
Q49.125 74.2188 55.5469 72.4531
Q61.9688 70.7031 67.3906 67.2812
L67.3906 56.7812
Q61.9219 61.4219 55.7656 63.7656
Q49.6094 66.1094 42.8281 66.1094
Q29.4375 66.1094 22.7188 58.6406
Q16.0156 51.1719 16.0156 36.375
Q16.0156 21.625 22.7188 14.1562
Q29.4375 6.6875 42.8281 6.6875
Q48.0469 6.6875 52.1406 7.59375
Q56.25 8.5 59.5156 10.4062" id="DejaVuSans-47"/>
     </defs>
     <g transform="translate(396.87140625 46.878125)scale(0.12 -0.12)">
      <use xlink:href="#DejaVuSans-53"/>
      <use x="63.4765625" xlink:href="#DejaVuSans-65"/>
      <use x="125.0" xlink:href="#DejaVuSans-6e"/>
      <use x="188.37890625" xlink:href="#DejaVuSans-73"/>
      <use x="240.478515625" xlink:href="#DejaVuSans-6f"/>
      <use x="301.66015625" xlink:href="#DejaVuSans-72"/>
      <use x="342.7734375" xlink:href="#DejaVuSans-20"/>
      <use x="374.560546875" xlink:href="#DejaVuSans-47"/>
      <use x="452.05078125" xlink:href="#DejaVuSans-61"/>
      <use x="513.330078125" xlink:href="#DejaVuSans-69"/>
      <use x="541.11328125" xlink:href="#DejaVuSans-6e"/>
      <use x="604.4921875" xlink:href="#DejaVuSans-20"/>
      <use x="636.279296875" xlink:href="#DejaVuSans-56"/>
      <use x="696.9375" xlink:href="#DejaVuSans-61"/>
      <use x="758.216796875" xlink:href="#DejaVuSans-6c"/>
      <use x="786.0" xlink:href="#DejaVuSans-75"/>
      <use x="849.37890625" xlink:href="#DejaVuSans-65"/>
      <use x="910.90234375" xlink:href="#DejaVuSans-73"/>
     </g>
     <!--  -->
     <g transform="translate(396.87140625 60.3155)scale(0.12 -0.12)"/>
    </g>
    <g id="patch_17">
     <path d="
M365.68 75.4096
L385.68 75.4096
L385.68 68.4096
L365.68 68.4096
z
" style="fill:#00868b;"/>
    </g>
    <g id="text_26">
     <!-- Control: 1.0 1.0 1.0 -->
     <defs>
      <path d="
M11.7188 12.4062
L22.0156 12.4062
L22.0156 0
L11.7188 0
z

M11.7188 51.7031
L22.0156 51.7031
L22.0156 39.3125
L11.7188 39.3125
z
" id="DejaVuSans-3a"/>
      <path d="
M10.6875 12.4062
L21 12.4062
L21 0
L10.6875 0
z
" id="DejaVuSans-2e"/>
     </defs>
     <g transform="translate(393.67984375 75.4095625)scale(0.1 -0.1)">
      <use xlink:href="#DejaVuSans-43"/>
      <use x="69.82421875" xlink:href="#DejaVuSans-6f"/>
      <use x="131.005859375" xlink:href="#DejaVuSans-6e"/>
      <use x="194.384765625" xlink:href="#DejaVuSans-74"/>
      <use x="233.59375" xlink:href="#DejaVuSans-72"/>
      <use x="272.45703125" xlink:href="#DejaVuSans-6f"/>
      <use x="333.638671875" xlink:href="#DejaVuSans-6c"/>
      <use x="361.421875" xlink:href="#DejaVuSans-3a"/>
      <use x="395.11328125" xlink:href="#DejaVuSans-20"/>
      <use x="426.900390625" xlink:href="#DejaVuSans-31"/>
      <use x="490.5234375" xlink:href="#DejaVuSans-2e"/>
      <use x="522.310546875" xlink:href="#DejaVuSans-30"/>
      <use x="585.93359375" xlink:href="#DejaVuSans-20"/>
      <use x="617.720703125" xlink:href="#DejaVuSans-31"/>
      <use x="681.34375" xlink:href="#DejaVuSans-2e"/>
      <use x="713.130859375" xlink:href="#DejaVuSans-30"/>
      <use x="776.75390625" xlink:href="#DejaVuSans-20"/>
      <use x="808.541015625" xlink:href="#DejaVuSans-31"/>
      <use x="872.1640625" xlink:href="#DejaVuSans-2e"/>
      <use x="903.951171875" xlink:href="#DejaVuSans-30"/>
     </g>
    </g>
    <g id="patch_18">
     <path d="
M365.68 90.0877
L385.68 90.0877
L385.68 83.0877
L365.68 83.0877
z
" style="fill:#ee4000;"/>
    </g>
    <g id="text_27">
     <!-- Best Experiment: 1.5 1.5 1.5 -->
     <defs>
      <path d="
M9.8125 72.9062
L55.9062 72.9062
L55.9062 64.5938
L19.6719 64.5938
L19.6719 43.0156
L54.3906 43.0156
L54.3906 34.7188
L19.6719 34.7188
L19.6719 8.29688
L56.7812 8.29688
L56.7812 0
L9.8125 0
z
" id="DejaVuSans-45"/>
     </defs>
     <g transform="translate(393.67984375 90.0876875)scale(0.1 -0.1)">
      <use xlink:href="#DejaVuSans-42"/>
      <use x="68.603515625" xlink:href="#DejaVuSans-65"/>
      <use x="130.126953125" xlink:href="#DejaVuSans-73"/>
      <use x="182.2265625" xlink:href="#DejaVuSans-74"/>
      <use x="221.435546875" xlink:href="#DejaVuSans-20"/>
      <use x="253.22265625" xlink:href="#DejaVuSans-45"/>
      <use x="316.40625" xlink:href="#DejaVuSans-78"/>
      <use x="375.5859375" xlink:href="#DejaVuSans-70"/>
      <use x="439.0625" xlink:href="#DejaVuSans-65"/>
      <use x="500.5859375" xlink:href="#DejaVuSans-72"/>
      <use x="541.69921875" xlink:href="#DejaVuSans-69"/>
      <use x="569.482421875" xlink:href="#DejaVuSans-6d"/>
      <use x="666.89453125" xlink:href="#DejaVuSans-65"/>
      <use x="728.41796875" xlink:href="#DejaVuSans-6e"/>
      <use x="791.796875" xlink:href="#DejaVuSans-74"/>
      <use x="831.005859375" xlink:href="#DejaVuSans-3a"/>
      <use x="864.697265625" xlink:href="#DejaVuSans-20"/>
      <use x="896.484375" xlink:href="#DejaVuSans-31"/>
      <use x="960.107421875" xlink:href="#DejaVuSans-2e"/>
      <use x="991.89453125" xlink:href="#DejaVuSans-35"/>
      <use x="1055.51757812" xlink:href="#DejaVuSans-20"/>
      <use x="1087.3046875" xlink:href="#DejaVuSans-31"/>
      <use x="1150.92773438" xlink:href="#DejaVuSans-2e"/>
      <use x="1182.71484375" xlink:href="#DejaVuSans-35"/>
      <use x="1246.33789062" xlink:href="#DejaVuSans-20"/>
      <use x="1278.125" xlink:href="#DejaVuSans-31"/>
      <use x="1341.74804688" xlink:href="#DejaVuSans-2e"/>
      <use x="1373.53515625" xlink:href="#DejaVuSans-35"/>
     </g>
    </g>
    <g id="patch_19">
     <path d="
M365.68 104.766
L385.68 104.766
L385.68 97.7658
L365.68 97.7658
z
" style="fill:#fff68f;"/>
    </g>
    <g id="text_28">
     <!-- Worst Experiment: 1.0 1.5 1.5 -->
     <defs>
      <path d="
M3.32812 72.9062
L13.2812 72.9062
L28.6094 11.2812
L43.8906 72.9062
L54.9844 72.9062
L70.3125 11.2812
L85.5938 72.9062
L95.6094 72.9062
L77.2969 0
L64.8906 0
L49.5156 63.2812
L33.9844 0
L21.5781 0
z
" id="DejaVuSans-57"/>
     </defs>
     <g transform="translate(393.67984375 104.7658125)scale(0.1 -0.1)">
      <use xlink:href="#DejaVuSans-57"/>
      <use x="93.001953125" xlink:href="#DejaVuSans-6f"/>
      <use x="154.18359375" xlink:href="#DejaVuSans-72"/>
      <use x="195.296875" xlink:href="#DejaVuSans-73"/>
      <use x="247.396484375" xlink:href="#DejaVuSans-74"/>
      <use x="286.60546875" xlink:href="#DejaVuSans-20"/>
      <use x="318.392578125" xlink:href="#DejaVuSans-45"/>
      <use x="381.576171875" xlink:href="#DejaVuSans-78"/>
      <use x="440.755859375" xlink:href="#DejaVuSans-70"/>
      <use x="504.232421875" xlink:href="#DejaVuSans-65"/>
      <use x="565.755859375" xlink:href="#DejaVuSans-72"/>
      <use x="606.869140625" xlink:href="#DejaVuSans-69"/>
      <use x="634.65234375" xlink:href="#DejaVuSans-6d"/>
      <use x="732.064453125" xlink:href="#DejaVuSans-65"/>
      <use x="793.587890625" xlink:href="#DejaVuSans-6e"/>
      <use x="856.966796875" xlink:href="#DejaVuSans-74"/>
      <use x="896.17578125" xlink:href="#DejaVuSans-3a"/>
      <use x="929.8671875" xlink:href="#DejaVuSans-20"/>
      <use x="961.654296875" xlink:href="#DejaVuSans-31"/>
      <use x="1025.27734375" xlink:href="#DejaVuSans-2e"/>
      <use x="1057.06445312" xlink:href="#DejaVuSans-30"/>
      <use x="1120.6875" xlink:href="#DejaVuSans-20"/>
      <use x="1152.47460938" xlink:href="#DejaVuSans-31"/>
      <use x="1216.09765625" xlink:href="#DejaVuSans-2e"/>
      <use x="1247.88476562" xlink:href="#DejaVuSans-35"/>
      <use x="1311.5078125" xlink:href="#DejaVuSans-20"/>
      <use x="1343.29492188" xlink:href="#DejaVuSans-31"/>
      <use x="1406.91796875" xlink:href="#DejaVuSans-2e"/>
      <use x="1438.70507812" xlink:href="#DejaVuSans-35"/>
     </g>
    </g>
   </g>
  </g>
 </g>
 <defs>
  <clipPath id="p1a9379d394">
   <rect height="356.08" width="503.62453125" x="48.4115625" y="28.76"/>
  </clipPath>
 </defs>
</svg>
