<?xml version="1.0" encoding="UTF-8" standalone="no"?>
<!-- Created with Inkscape (http://www.inkscape.org/) -->

<svg
   xmlns:dc="http://purl.org/dc/elements/1.1/"
   xmlns:cc="http://creativecommons.org/ns#"
   xmlns:rdf="http://www.w3.org/1999/02/22-rdf-syntax-ns#"
   xmlns:svg="http://www.w3.org/2000/svg"
   xmlns="http://www.w3.org/2000/svg"
   xmlns:sodipodi="http://sodipodi.sourceforge.net/DTD/sodipodi-0.dtd"
   xmlns:inkscape="http://www.inkscape.org/namespaces/inkscape"
   width="1126.8348"
   height="164.82512"
   id="svg24747"
   version="1.1"
   inkscape:version="0.48.5 r10040"
   sodipodi:docname="morphology-array.svg">
  <defs
     id="defs24749" />
  <sodipodi:namedview
     id="base"
     pagecolor="#ffffff"
     bordercolor="#666666"
     borderopacity="1.0"
     inkscape:pageopacity="0.0"
     inkscape:pageshadow="2"
     inkscape:zoom="0.98994949"
     inkscape:cx="455.22359"
     inkscape:cy="210.82486"
     inkscape:document-units="px"
     inkscape:current-layer="layer1"
     showgrid="false"
     fit-margin-top="0"
     fit-margin-left="0"
     fit-margin-right="0"
     fit-margin-bottom="0"
     inkscape:window-width="1916"
     inkscape:window-height="1022"
     inkscape:window-x="1024"
     inkscape:window-y="36"
     inkscape:window-maximized="0" />
  <metadata
     id="metadata24752">
    <rdf:RDF>
      <cc:Work
         rdf:about="">
        <dc:format>image/svg+xml</dc:format>
        <dc:type
           rdf:resource="http://purl.org/dc/dcmitype/StillImage" />
        <dc:title />
      </cc:Work>
    </rdf:RDF>
  </metadata>
  <g
     inkscape:label="Layer 1"
     inkscape:groupmode="layer"
     id="layer1"
     transform="translate(589.13168,-209.94963)">
    <path
       sodipodi:type="arc"
       style="color:#000000;fill:#000000;fill-opacity:1;fill-rule:nonzero;stroke:#000000;stroke-width:3.86895251;stroke-linecap:butt;stroke-linejoin:miter;stroke-miterlimit:4;stroke-opacity:1;stroke-dasharray:none;stroke-dashoffset:0;marker:none;visibility:visible;display:inline;overflow:visible;enable-background:accumulate"
       id="path3878-9-7-6-5-0"
       sodipodi:cx="-1032.2991"
       sodipodi:cy="-813.15125"
       sodipodi:rx="8.9508924"
       sodipodi:ry="8.9508924"
       d="m -1023.3482,-813.15125 a 8.9508924,8.9508924 0 1 1 -17.9018,0 8.9508924,8.9508924 0 1 1 17.9018,0 z"
       transform="matrix(-0.51693539,-6.8013661e-4,6.8013661e-4,-0.51693539,-1107.9404,-105.45494)" />
    <path
       style="fill:#ffffff;fill-opacity:1;stroke:none"
       d="m -570.91465,318.44084 -3.77457,-3.23479 -3.86709,3.28019 -0.0376,-3.46479 3.86709,-3.28025 3.77289,2.99035 z"
       id="path3880-2-2-2-7-5-7-5"
       inkscape:connector-curvature="0"
       sodipodi:nodetypes="ccccccc" />
    <rect
       style="color:#000000;fill:#808080;fill-opacity:0.50129235;fill-rule:nonzero;stroke:none;stroke-width:0.50000000000000000;marker:none;visibility:visible;display:inline;overflow:visible;enable-background:accumulate"
       id="rect4140-633-5-3-7"
       width="6.4610529"
       height="2.8136845"
       x="573.01837"
       y="-307.99628"
       transform="matrix(-0.99999152,0.00411826,-0.00411826,-0.99999152,0,0)" />
    <path
       style="fill:#808080;fill-opacity:0.50129235;stroke:none"
       d="m -571.10998,281.02432 -3.7552,29.42256 -4.34327,-29.40656 z"
       id="path3060-8-40-3-7-1"
       inkscape:connector-curvature="0"
       sodipodi:nodetypes="cccc"
       inkscape:transform-center-y="-27.56448"
       inkscape:transform-center-x="0.546875" />
    <path
       style="color:#000000;fill:#808080;fill-opacity:0.50129235;stroke:none;stroke-width:1.77959179999999995;marker:none;visibility:visible;display:inline;overflow:visible;enable-background:accumulate"
       d="m -520.45987,257.81883 c 0,0 11.44926,-6.70632 17.70634,-8.85024 5.37591,-1.84198 11.87705,-2.94668 17.55762,-3.10286 7.02904,-0.19325 13.63381,1.14135 20.36098,3.18828 6.05903,1.84363 17.79694,8.37909 17.79694,8.37909 l -36.8663,52.99189 z"
       id="path4238-0-17-6-1-6"
       inkscape:connector-curvature="0"
       sodipodi:nodetypes="csssccc"
       inkscape:transform-center-y="-60.499623"
       inkscape:transform-center-x="-0.296875" />
    <path
       sodipodi:type="arc"
       style="color:#000000;fill:#000000;fill-opacity:1;fill-rule:nonzero;stroke:#000000;stroke-width:3.86895251;stroke-linecap:butt;stroke-linejoin:miter;stroke-miterlimit:4;stroke-opacity:1;stroke-dasharray:none;stroke-dashoffset:0;marker:none;visibility:visible;display:inline;overflow:visible;enable-background:accumulate"
       id="path3878-9-3-02-8-2-1"
       sodipodi:cx="-1032.2991"
       sodipodi:cy="-813.15125"
       sodipodi:rx="8.9508924"
       sodipodi:ry="8.9508924"
       d="m -1023.3482,-813.15125 a 8.9508924,8.9508924 0 1 1 -17.9018,0 8.9508924,8.9508924 0 1 1 17.9018,0 z"
       transform="matrix(-0.51693539,-6.8013661e-4,6.8013661e-4,-0.51693539,-1017.0297,-105.72168)" />
    <path
       style="fill:#ffffff;fill-opacity:1;stroke:none"
       d="m -480.05116,318.17409 -3.77457,-3.23478 -3.86709,3.28019 -0.0376,-3.46479 3.86709,-3.28025 3.77288,2.99035 z"
       id="path3880-2-2-2-3-16-3-5-6"
       inkscape:connector-curvature="0"
       sodipodi:nodetypes="ccccccc" />
    <rect
       style="color:#000000;fill:#808080;fill-opacity:0.50129235;fill-rule:nonzero;stroke:none;stroke-width:0.50000000000000000;marker:none;visibility:visible;display:inline;overflow:visible;enable-background:accumulate"
       id="rect4140-6-26-0-4-6"
       width="6.4610529"
       height="2.8136845"
       x="482.10736"
       y="-308.10391"
       transform="matrix(-0.99999152,0.00411826,-0.00411826,-0.99999152,0,0)" />
    <path
       style="fill:#808080;fill-opacity:0.50129235;stroke:none"
       d="m -372.22642,280.75758 -3.75519,29.42258 -4.34329,-29.40657 z"
       id="path3060-8-6-0-1-7-1"
       inkscape:connector-curvature="0"
       sodipodi:nodetypes="cccc"
       inkscape:transform-center-y="-27.56448"
       inkscape:transform-center-x="0.546875" />
    <path
       style="fill:#808080;fill-opacity:0.50129235;stroke:none"
       d="m -341.67111,318.95202 -29.42257,-3.75525 29.40656,-4.34323 z"
       id="path3060-8-2-90-2-0-2"
       inkscape:connector-curvature="0"
       sodipodi:nodetypes="cccc"
       inkscape:transform-center-y="-0.546875"
       inkscape:transform-center-x="-27.56448" />
    <path
       style="fill:#808080;fill-opacity:0.50129235;stroke:none"
       d="m -410.34389,319.15626 29.42258,-3.75519 -29.40657,-4.34323 z"
       id="path3060-8-2-5-6-6-7-0"
       inkscape:connector-curvature="0"
       sodipodi:nodetypes="cccc"
       inkscape:transform-center-y="-0.546875"
       inkscape:transform-center-x="27.56448" />
    <path
       sodipodi:type="arc"
       style="color:#000000;fill:#000000;fill-opacity:1;fill-rule:nonzero;stroke:#000000;stroke-width:3.86895251;stroke-linecap:butt;stroke-linejoin:miter;stroke-miterlimit:4;stroke-opacity:1;stroke-dasharray:none;stroke-dashoffset:0;marker:none;visibility:visible;display:inline;overflow:visible;enable-background:accumulate"
       id="path3878-9-0-53-6-2-7"
       sodipodi:cx="-1032.2991"
       sodipodi:cy="-813.15125"
       sodipodi:rx="8.9508924"
       sodipodi:ry="8.9508924"
       d="m -1023.3482,-813.15125 a 8.9508924,8.9508924 0 1 1 -17.9018,0 8.9508924,8.9508924 0 1 1 17.9018,0 z"
       transform="matrix(-0.51693539,-6.8013661e-4,6.8013661e-4,-0.51693539,-909.05683,-105.72167)" />
    <path
       style="fill:#ffffff;fill-opacity:1;stroke:none"
       d="m -372.07826,318.17411 -3.77457,-3.23479 -3.86709,3.28019 -0.0376,-3.46479 3.86709,-3.28025 3.77289,2.99035 z"
       id="path3880-2-2-2-0-6-9-8-1"
       inkscape:connector-curvature="0"
       sodipodi:nodetypes="ccccccc" />
    <rect
       style="color:#000000;fill:#808080;fill-opacity:0.50129235;fill-rule:nonzero;stroke:none;stroke-width:0.50000000000000000;marker:none;visibility:visible;display:inline;overflow:visible;enable-background:accumulate"
       id="rect4140-63-0-3-0-3"
       width="6.4610529"
       height="2.8136845"
       x="374.13541"
       y="-308.54858"
       transform="matrix(-0.99999152,0.00411826,-0.00411826,-0.99999152,0,0)" />
    <path
       style="color:#000000;fill:#808080;fill-opacity:0.50129235;stroke:none;stroke-width:1.77959179999999995;marker:none;visibility:visible;display:inline;overflow:visible;enable-background:accumulate"
       d="m -171.59636,338.30579 c 0,0 6.70634,-11.44929 8.85025,-17.70633 1.84198,-5.37595 2.94668,-11.87705 3.10286,-17.55764 0.19325,-7.02904 -1.14134,-13.63379 -3.18828,-20.36097 -1.84363,-6.05904 -8.37909,-17.79696 -8.37909,-17.79696 l -52.9919,36.86631 z"
       id="path4238-0-9-4-8-6-7-1"
       inkscape:connector-curvature="0"
       sodipodi:nodetypes="csssccc"
       inkscape:transform-center-y="-0.29687007"
       inkscape:transform-center-x="-60.499624" />
    <path
       style="color:#000000;fill:#808080;fill-opacity:0.50129235;stroke:none;stroke-width:1.77959179999999995;marker:none;visibility:visible;display:inline;overflow:visible;enable-background:accumulate"
       d="m -286.61415,338.09903 c 0,0 -6.70633,-11.44928 -8.85024,-17.70638 -1.84199,-5.37589 -2.94668,-11.877 -3.10286,-17.55759 -0.19325,-7.02904 1.14134,-13.63379 3.18828,-20.36097 1.84362,-6.05904 8.37909,-17.79695 8.37909,-17.79695 l 52.99189,36.86631 z"
       id="path4238-0-9-5-2-6-0"
       inkscape:connector-curvature="0"
       sodipodi:nodetypes="csssccc"
       inkscape:transform-center-y="-0.29687007"
       inkscape:transform-center-x="60.499628" />
    <path
       style="color:#000000;fill:#808080;fill-opacity:0.50129235;stroke:none;stroke-width:1.77959179999999995;marker:none;visibility:visible;display:inline;overflow:visible;enable-background:accumulate"
       d="m -265.71566,244.11367 c 0,0 11.44927,-6.70631 17.70635,-8.85025 5.37592,-1.84198 11.87705,-2.94669 17.55762,-3.10285 7.02904,-0.19326 13.63381,1.14132 20.36098,3.18829 6.05904,1.84363 17.79695,8.37905 17.79695,8.37905 l -36.86631,52.99192 z"
       id="path4238-0-1-8-4-0-1"
       inkscape:connector-curvature="0"
       sodipodi:nodetypes="csssccc"
       inkscape:transform-center-y="-60.499623"
       inkscape:transform-center-x="-0.296875" />
    <path
       sodipodi:type="arc"
       style="color:#000000;fill:#000000;fill-opacity:1;fill-rule:nonzero;stroke:#000000;stroke-width:3.86895251;stroke-linecap:butt;stroke-linejoin:miter;stroke-miterlimit:4;stroke-opacity:1;stroke-dasharray:none;stroke-dashoffset:0;marker:none;visibility:visible;display:inline;overflow:visible;enable-background:accumulate"
       id="path3878-9-3-5-7-3-0-2"
       sodipodi:cx="-1032.2991"
       sodipodi:cy="-813.15125"
       sodipodi:rx="8.9508924"
       sodipodi:ry="8.9508924"
       d="m -1023.3482,-813.15125 a 8.9508924,8.9508924 0 1 1 -17.9018,0 8.9508924,8.9508924 0 1 1 17.9018,0 z"
       transform="matrix(-0.51693539,-6.8013661e-4,6.8013661e-4,-0.51693539,-762.28549,-119.42685)" />
    <path
       style="fill:#ffffff;fill-opacity:1;stroke:none"
       d="m -225.30692,304.46892 -3.77457,-3.23478 -3.86709,3.28019 -0.0376,-3.46479 3.86709,-3.28025 3.77288,2.99035 z"
       id="path3880-2-2-2-3-0-6-5-8-8"
       inkscape:connector-curvature="0"
       sodipodi:nodetypes="ccccccc" />
    <rect
       style="color:#000000;fill:#808080;fill-opacity:0.50129235;fill-rule:nonzero;stroke:none;stroke-width:0.50000000000000000;marker:none;visibility:visible;display:inline;overflow:visible;enable-background:accumulate"
       id="rect4140-6-2-3-5-4-2"
       width="6.4610529"
       height="2.8136845"
       x="227.30885"
       y="-295.44797"
       transform="matrix(-0.99999152,0.00411826,-0.00411826,-0.99999152,0,0)" />
    <path
       style="color:#000000;fill:#808080;fill-opacity:0.50129235;stroke:none;stroke-width:1.77959179999999995;marker:none;visibility:visible;display:inline;overflow:visible;enable-background:accumulate"
       d="m -82.386365,338.28043 c 0,0 11.449263,6.70633 17.706347,8.85024 5.375913,1.84198 11.877049,2.94668 17.55762,3.10287 7.029039,0.19324 13.633805,-1.14135 20.360975,-3.18829 6.059037,-1.84363 17.7969481,-8.37909 17.7969481,-8.37909 L -45.83078,285.67428 z"
       id="path4238-0-2-0-3-9-2"
       inkscape:connector-curvature="0"
       sodipodi:nodetypes="csssccc"
       inkscape:transform-center-y="60.499619"
       inkscape:transform-center-x="-0.296875" />
    <path
       style="color:#000000;fill:#808080;fill-opacity:0.50129235;stroke:none;stroke-width:1.77959179999999995;marker:none;visibility:visible;display:inline;overflow:visible;enable-background:accumulate"
       d="m 11.831261,317.30396 c 0,0 6.706335,-11.44927 8.850246,-17.70635 1.841984,-5.37591 2.946676,-11.87705 3.10286,-17.55762 0.193249,-7.02904 -1.141343,-13.6338 -3.18828,-20.36098 -1.843628,-6.05904 -8.379091,-17.79695 -8.379091,-17.79695 l -52.991895,36.86631 z"
       id="path4238-0-9-4-5-2-4-6-9"
       inkscape:connector-curvature="0"
       sodipodi:nodetypes="csssccc"
       inkscape:transform-center-y="-0.29687007"
       inkscape:transform-center-x="-60.499624" />
    <path
       style="color:#000000;fill:#808080;fill-opacity:0.50129235;stroke:none;stroke-width:1.77959179999999995;marker:none;visibility:visible;display:inline;overflow:visible;enable-background:accumulate"
       d="m -103.18652,317.09719 c 0,0 -6.70634,-11.44926 -8.85025,-17.70634 -1.84198,-5.37591 -2.94668,-11.87705 -3.10286,-17.55762 -0.19325,-7.02904 1.14134,-13.63381 3.18828,-20.36098 1.84363,-6.05904 8.37909,-17.79695 8.37909,-17.79695 l 52.991891,36.86631 z"
       id="path4238-0-9-3-6-4-1-8"
       inkscape:connector-curvature="0"
       sodipodi:nodetypes="csssccc"
       inkscape:transform-center-y="-0.29687007"
       inkscape:transform-center-x="60.499628" />
    <path
       style="color:#000000;fill:#808080;fill-opacity:0.50129235;stroke:none;stroke-width:1.77959179999999995;marker:none;visibility:visible;display:inline;overflow:visible;enable-background:accumulate"
       d="m -82.288035,223.11183 c 0,0 11.449262,-6.70633 17.706346,-8.85024 5.375913,-1.84198 11.87705,-2.94668 17.557621,-3.10286 7.029039,-0.19325 13.633804,1.14134 20.360975,3.18828 6.059037,1.84363 17.7969477,8.37909 17.7969477,8.37909 l -36.8663057,52.99189 z"
       id="path4238-0-99-4-6-8-6"
       inkscape:connector-curvature="0"
       sodipodi:nodetypes="csssccc"
       inkscape:transform-center-y="-60.499623"
       inkscape:transform-center-x="-0.296875" />
    <path
       sodipodi:type="arc"
       style="color:#000000;fill:#000000;fill-opacity:1;fill-rule:nonzero;stroke:#000000;stroke-width:3.86895251;stroke-linecap:butt;stroke-linejoin:miter;stroke-miterlimit:4;stroke-opacity:1;stroke-dasharray:none;stroke-dashoffset:0;marker:none;visibility:visible;display:inline;overflow:visible;enable-background:accumulate"
       id="path3878-9-3-0-4-5-6-0"
       sodipodi:cx="-1032.2991"
       sodipodi:cy="-813.15125"
       sodipodi:rx="8.9508924"
       sodipodi:ry="8.9508924"
       d="m -1023.3482,-813.15125 a 8.9508924,8.9508924 0 1 1 -17.9018,0 8.9508924,8.9508924 0 1 1 17.9018,0 z"
       transform="matrix(-0.51693539,-6.8013661e-4,6.8013661e-4,-0.51693539,-578.85789,-140.42868)" />
    <path
       style="fill:#ffffff;fill-opacity:1;stroke:none"
       d="m -41.879317,283.46709 -3.77457,-3.23478 -3.867092,3.28019 -0.03757,-3.46479 3.867087,-3.28025 3.772889,2.99035 z"
       id="path3880-2-2-2-3-4-8-4-0-4"
       inkscape:connector-curvature="0"
       sodipodi:nodetypes="ccccccc" />
    <rect
       style="color:#000000;fill:#808080;fill-opacity:0.50129235;fill-rule:nonzero;stroke:none;stroke-width:0.50000000000000000;marker:none;visibility:visible;display:inline;overflow:visible;enable-background:accumulate"
       id="rect4140-6-7-9-8-0-9"
       width="6.4610529"
       height="2.8136845"
       x="43.796303"
       y="-275.20175"
       transform="matrix(-0.99999152,0.00411826,-0.00411826,-0.99999152,0,0)" />
    <path
       style="fill:#808080;fill-opacity:0.50129235;stroke:none"
       d="m -41.98438,246.24671 -3.755206,29.42257 -4.343269,-29.40657 z"
       id="path3060-8-26-5-6-9-1"
       inkscape:connector-curvature="0"
       sodipodi:nodetypes="cccc"
       inkscape:transform-center-y="-27.56448"
       inkscape:transform-center-x="0.546875" />
    <path
       style="fill:#808080;fill-opacity:0.50129235;stroke:none"
       d="m -11.429094,284.44113 -29.422557,-3.75521 29.406562,-4.34327 z"
       id="path3060-8-2-9-4-7-5-0"
       inkscape:connector-curvature="0"
       sodipodi:nodetypes="cccc"
       inkscape:transform-center-y="-0.546875"
       inkscape:transform-center-x="-27.56448" />
    <path
       style="fill:#808080;fill-opacity:0.50129235;stroke:none"
       d="m -80.101839,284.24514 29.422559,-3.7552 -29.406564,-4.34327 z"
       id="path3060-8-2-5-8-2-8-6-8"
       inkscape:connector-curvature="0"
       sodipodi:nodetypes="cccc"
       inkscape:transform-center-y="-0.546875"
       inkscape:transform-center-x="27.56448" />
    <path
       style="fill:#808080;fill-opacity:0.50129235;stroke:none"
       d="m 173.25526,301.74411 -23.46022,-18.14955 17.72243,23.86473 z"
       id="path3060-8-26-7-8-1-4-9"
       inkscape:connector-curvature="0"
       sodipodi:nodetypes="cccc"
       inkscape:transform-center-y="22.35478"
       inkscape:transform-center-x="-21.981535" />
    <path
       style="fill:#808080;fill-opacity:0.50129235;stroke:none"
       d="M 124.69518,253.08544 142.84473,276.54566 118.98,258.82323 z"
       id="path3060-8-26-4-48-9-7-8"
       inkscape:connector-curvature="0"
       sodipodi:nodetypes="cccc"
       inkscape:transform-center-y="-21.981539"
       inkscape:transform-center-x="22.354779" />
    <path
       style="fill:#808080;fill-opacity:0.50129235;stroke:none"
       d="m 173.30855,258.48711 -23.46022,18.14956 17.72242,-23.86473 z"
       id="path3060-8-2-9-6-69-1-1-3"
       inkscape:connector-curvature="0"
       sodipodi:nodetypes="cccc"
       inkscape:transform-center-y="-22.354777"
       inkscape:transform-center-x="-21.981542" />
    <path
       style="fill:#808080;fill-opacity:0.50129235;stroke:none"
       d="m 124.61101,306.90749 18.14956,-23.46022 -23.86474,17.72243 z"
       id="path3060-8-2-5-8-6-6-3-9-8"
       inkscape:connector-curvature="0"
       sodipodi:nodetypes="cccc"
       inkscape:transform-center-y="21.981535"
       inkscape:transform-center-x="22.354778" />
    <path
       style="color:#000000;fill:#808080;fill-opacity:0.50129235;stroke:none;stroke-width:1.77959179999999995;marker:none;visibility:visible;display:inline;overflow:visible;enable-background:accumulate"
       d="m 109.71062,337.67396 c 0,0 11.44926,6.70633 17.70635,8.85024 5.37591,1.84199 11.87705,2.94668 17.55762,3.10287 7.02904,0.19325 13.6338,-1.14135 20.36097,-3.18829 6.05904,-1.84363 17.79695,-8.37908 17.79695,-8.37908 L 146.2662,285.06781 z"
       id="path4238-0-2-7-6-5-1-8"
       inkscape:connector-curvature="0"
       sodipodi:nodetypes="csssccc"
       inkscape:transform-center-y="60.499619"
       inkscape:transform-center-x="-0.296875" />
    <path
       style="color:#000000;fill:#808080;fill-opacity:0.50129235;stroke:none;stroke-width:1.77959179999999995;marker:none;visibility:visible;display:inline;overflow:visible;enable-background:accumulate"
       d="m 203.92825,316.69749 c 0,0 6.70633,-11.44927 8.85024,-17.70635 1.84199,-5.37591 2.94668,-11.87705 3.10286,-17.55762 0.19325,-7.02904 -1.14134,-13.6338 -3.18828,-20.36097 -1.84363,-6.05904 -8.37909,-17.79695 -8.37909,-17.79695 l -52.99189,36.8663 z"
       id="path4238-0-9-4-59-1-0-1-6"
       inkscape:connector-curvature="0"
       sodipodi:nodetypes="csssccc"
       inkscape:transform-center-y="-0.29687007"
       inkscape:transform-center-x="-60.499624" />
    <path
       style="color:#000000;fill:#808080;fill-opacity:0.50129235;stroke:none;stroke-width:1.77959179999999995;marker:none;visibility:visible;display:inline;overflow:visible;enable-background:accumulate"
       d="m 88.910462,316.49072 c 0,0 -6.706335,-11.44926 -8.850246,-17.70634 -1.841984,-5.37591 -2.946677,-11.87705 -3.10286,-17.55762 -0.193249,-7.02904 1.141342,-13.63381 3.188279,-20.36098 1.843628,-6.05903 8.379092,-17.79694 8.379092,-17.79694 l 52.991893,36.8663 z"
       id="path4238-0-9-7-1-7-9-1"
       inkscape:connector-curvature="0"
       sodipodi:nodetypes="csssccc"
       inkscape:transform-center-y="-0.29687007"
       inkscape:transform-center-x="60.499628" />
    <path
       style="color:#000000;fill:#808080;fill-opacity:0.50129235;stroke:none;stroke-width:1.77959179999999995;marker:none;visibility:visible;display:inline;overflow:visible;enable-background:accumulate"
       d="m 109.80895,222.50537 c 0,0 11.44926,-6.70634 17.70635,-8.85025 5.37591,-1.84198 11.87705,-2.94668 17.55762,-3.10286 7.02904,-0.19325 13.6338,1.14134 20.36097,3.18828 6.05904,1.84363 17.79695,8.37909 17.79695,8.37909 l -36.86631,52.99189 z"
       id="path4238-0-5-4-0-8-1"
       inkscape:connector-curvature="0"
       sodipodi:nodetypes="csssccc"
       inkscape:transform-center-y="-60.499623"
       inkscape:transform-center-x="-0.296875" />
    <path
       sodipodi:type="arc"
       style="color:#000000;fill:#000000;fill-opacity:1;fill-rule:nonzero;stroke:#000000;stroke-width:3.86895251;stroke-linecap:butt;stroke-linejoin:miter;stroke-miterlimit:4;stroke-opacity:1;stroke-dasharray:none;stroke-dashoffset:0;marker:none;visibility:visible;display:inline;overflow:visible;enable-background:accumulate"
       id="path3878-9-3-57-9-5-6-4"
       sodipodi:cx="-1032.2991"
       sodipodi:cy="-813.15125"
       sodipodi:rx="8.9508924"
       sodipodi:ry="8.9508924"
       d="m -1023.3482,-813.15125 a 8.9508924,8.9508924 0 1 1 -17.9018,0 8.9508924,8.9508924 0 1 1 17.9018,0 z"
       transform="matrix(-0.51693539,-6.8013661e-4,6.8013661e-4,-0.51693539,-386.7609,-141.03515)" />
    <path
       style="fill:#ffffff;fill-opacity:1;stroke:none"
       d="m 150.21767,282.86062 -3.77457,-3.23478 -3.86709,3.28019 -0.0376,-3.46479 3.86709,-3.28025 3.77288,2.99035 z"
       id="path3880-2-2-2-3-1-8-4-6-1"
       inkscape:connector-curvature="0"
       sodipodi:nodetypes="ccccccc" />
    <rect
       style="color:#000000;fill:#808080;fill-opacity:0.50129235;fill-rule:nonzero;stroke:none;stroke-width:0.50000000000000000;marker:none;visibility:visible;display:inline;overflow:visible;enable-background:accumulate"
       id="rect4140-6-1-5-5-7-4"
       width="6.4610529"
       height="2.8136845"
       x="-148.30154"
       y="-275.38638"
       transform="matrix(-0.99999152,0.00411826,-0.00411826,-0.99999152,0,0)" />
    <path
       style="fill:#808080;fill-opacity:0.50129235;stroke:none"
       d="m 336.11034,301.57121 -23.46022,-18.14957 17.72243,23.86474 z"
       id="path3060-8-0-3-3-2-8-5"
       inkscape:connector-curvature="0"
       sodipodi:nodetypes="cccc"
       inkscape:transform-center-y="22.354777"
       inkscape:transform-center-x="-21.981535" />
    <path
       style="fill:#808080;fill-opacity:0.50129235;stroke:none"
       d="m 287.54663,252.78154 18.14955,23.46023 -23.86473,-17.72244 z"
       id="path3060-8-8-5-0-1-4"
       inkscape:connector-curvature="0"
       sodipodi:nodetypes="cccc"
       inkscape:transform-center-y="-21.981539"
       inkscape:transform-center-x="22.354776" />
    <path
       style="fill:#808080;fill-opacity:0.50129235;stroke:none"
       d="m 336.16,258.18321 -23.46022,18.14956 17.72242,-23.86474 z"
       id="path3060-8-2-49-8-7-7-9"
       inkscape:connector-curvature="0"
       sodipodi:nodetypes="cccc"
       inkscape:transform-center-y="-22.354777"
       inkscape:transform-center-x="-21.981534" />
    <path
       style="fill:#808080;fill-opacity:0.50129235;stroke:none"
       d="m 287.7455,306.88664 18.14955,-23.46025 -23.86473,17.72245 z"
       id="path3060-8-2-5-3-1-1-4-6"
       inkscape:connector-curvature="0"
       sodipodi:nodetypes="cccc"
       inkscape:transform-center-y="21.981535"
       inkscape:transform-center-x="22.35478" />
    <path
       style="fill:#808080;fill-opacity:0.50129235;stroke:none"
       d="m 312.54174,314.03763 -3.75521,-29.42258 -4.34327,29.40657 z"
       id="path3060-8-0-9-5-0-9"
       inkscape:connector-curvature="0"
       sodipodi:nodetypes="cccc"
       inkscape:transform-center-y="27.56448"
       inkscape:transform-center-x="0.546875" />
    <path
       style="fill:#808080;fill-opacity:0.50129235;stroke:none"
       d="m 312.7015,245.19838 -3.75521,29.42258 -4.34326,-29.40658 z"
       id="path3060-8-4-4-4-3-1"
       inkscape:connector-curvature="0"
       sodipodi:nodetypes="cccc"
       inkscape:transform-center-y="-27.56448"
       inkscape:transform-center-x="0.546875" />
    <path
       style="fill:#808080;fill-opacity:0.50129235;stroke:none"
       d="m 343.25679,283.39282 -29.42256,-3.75525 29.40656,-4.34323 z"
       id="path3060-8-2-1-57-8-7-6"
       inkscape:connector-curvature="0"
       sodipodi:nodetypes="cccc"
       inkscape:transform-center-y="-0.546875"
       inkscape:transform-center-x="-27.56448" />
    <path
       style="fill:#808080;fill-opacity:0.50129235;stroke:none"
       d="m 274.58404,283.59707 29.42256,-3.7552 -29.40656,-4.34323 z"
       id="path3060-8-2-5-5-3-1-8-5"
       inkscape:connector-curvature="0"
       sodipodi:nodetypes="cccc"
       inkscape:transform-center-y="-0.546875"
       inkscape:transform-center-x="27.56448" />
    <path
       sodipodi:type="arc"
       style="color:#000000;fill:#000000;fill-opacity:1;fill-rule:nonzero;stroke:#000000;stroke-width:3.86895251;stroke-linecap:butt;stroke-linejoin:miter;stroke-miterlimit:4;stroke-opacity:1;stroke-dasharray:none;stroke-dashoffset:0;marker:none;visibility:visible;display:inline;overflow:visible;enable-background:accumulate"
       id="path3878-9-5-3-3-4-6"
       sodipodi:cx="-1032.2991"
       sodipodi:cy="-813.15125"
       sodipodi:rx="8.9508924"
       sodipodi:ry="8.9508924"
       d="m -1023.3482,-813.15125 a 8.9508924,8.9508924 0 1 1 -17.9018,0 8.9508924,8.9508924 0 1 1 17.9018,0 z"
       transform="matrix(-0.51693539,-6.8013661e-4,6.8013661e-4,-0.51693539,-224.12892,-141.28087)" />
    <path
       style="fill:#ffffff;fill-opacity:1;stroke:none"
       d="m 312.84965,282.6149 -3.77457,-3.23478 -3.86709,3.28019 -0.0376,-3.46479 3.86709,-3.28025 3.77288,2.99035 z"
       id="path3880-2-2-2-6-77-8-0-1"
       inkscape:connector-curvature="0"
       sodipodi:nodetypes="ccccccc" />
    <rect
       style="color:#000000;fill:#808080;fill-opacity:0.50129235;fill-rule:nonzero;stroke:none;stroke-width:0.50000000000000000;marker:none;visibility:visible;display:inline;overflow:visible;enable-background:accumulate"
       id="rect4140-2-0-2-6-2"
       width="6.4610529"
       height="2.8136845"
       x="-310.93317"
       y="-275.81036"
       transform="matrix(-0.99999152,0.00411826,-0.00411826,-0.99999152,0,0)" />
    <path
       style="color:#000000;fill:#808080;fill-opacity:0.50129235;stroke:none;stroke-width:1.77959179999999995;marker:none;visibility:visible;display:inline;overflow:visible;enable-background:accumulate"
       d="m 482.93718,346.16778 c 0,0 12.83794,-3.35376 18.77834,-6.26221 5.10383,-2.49887 10.48196,-6.31472 14.60917,-10.22105 5.10693,-4.83364 8.83351,-10.44762 12.14293,-16.65185 2.98074,-5.58802 6.65943,-18.50925 6.65943,-18.50925 l -63.53934,-11.40251 z"
       id="path4238-0-2-2-1-0-5-0"
       inkscape:connector-curvature="0"
       sodipodi:nodetypes="csssccc"
       inkscape:transform-center-y="59.061282"
       inkscape:transform-center-x="-59.530822" />
    <path
       style="color:#000000;fill:#808080;fill-opacity:0.50129235;stroke:none;stroke-width:1.77959179999999995;marker:none;visibility:visible;display:inline;overflow:visible;enable-background:accumulate"
       d="m 534.7265,264.71325 c 0,0 -3.35376,-12.83794 -6.26221,-18.77834 -2.49887,-5.10383 -6.31473,-10.48196 -10.22106,-14.60917 -4.83364,-5.10693 -10.44761,-8.8335 -16.65184,-12.14293 -5.58803,-2.98074 -18.50926,-6.65943 -18.50926,-6.65943 l -11.40251,63.53934 z"
       id="path4238-0-9-4-5-3-40-8-2-6"
       inkscape:connector-curvature="0"
       sodipodi:nodetypes="csssccc"
       inkscape:transform-center-y="-59.530822"
       inkscape:transform-center-x="-59.061294" />
    <path
       style="color:#000000;fill:#808080;fill-opacity:0.50129235;stroke:none;stroke-width:1.77959179999999995;marker:none;visibility:visible;display:inline;overflow:visible;enable-background:accumulate"
       d="m 453.25043,345.89691 c 0,0 -12.83794,-3.35376 -18.77834,-6.26221 -5.10383,-2.49887 -10.48196,-6.31472 -14.60917,-10.22106 -5.10693,-4.83363 -8.8335,-10.44761 -12.14293,-16.65184 -2.98074,-5.58803 -6.65943,-18.50925 -6.65943,-18.50925 l 63.53935,-11.40251 z"
       id="path4238-0-9-7-3-9-1-9-4"
       inkscape:connector-curvature="0"
       sodipodi:nodetypes="csssccc"
       inkscape:transform-center-y="59.061295"
       inkscape:transform-center-x="59.530818" />
    <path
       style="color:#000000;fill:#808080;fill-opacity:0.50129235;stroke:none;stroke-width:1.77959179999999995;marker:none;visibility:visible;display:inline;overflow:visible;enable-background:accumulate"
       d="m 401.57021,264.66176 c 0,0 3.35376,-12.83794 6.26221,-18.77834 2.49887,-5.10383 6.31473,-10.48197 10.22106,-14.60917 4.83363,-5.10693 10.44761,-8.83351 16.65184,-12.14293 5.58803,-2.98075 18.50925,-6.65944 18.50925,-6.65944 l 11.40252,63.53935 z"
       id="path4238-0-0-2-3-1-9"
       inkscape:connector-curvature="0"
       sodipodi:nodetypes="csssccc"
       inkscape:transform-center-y="-59.530825"
       inkscape:transform-center-x="59.061285" />
    <path
       style="color:#000000;fill:#808080;fill-opacity:0.50129235;stroke:none;stroke-width:1.77959179999999995;marker:none;visibility:visible;display:inline;overflow:visible;enable-background:accumulate"
       d="m 431.51384,337.08987 c 0,0 11.44926,6.70633 17.70635,8.85024 5.37591,1.84198 11.87704,2.94668 17.55761,3.10287 7.02904,0.19324 13.63381,-1.14135 20.36098,-3.18829 6.05904,-1.84363 17.79695,-8.37909 17.79695,-8.37909 l -36.86631,-52.99188 z"
       id="path4238-0-2-70-1-7-1-4"
       inkscape:connector-curvature="0"
       sodipodi:nodetypes="csssccc"
       inkscape:transform-center-y="60.499619"
       inkscape:transform-center-x="-0.296875" />
    <path
       style="color:#000000;fill:#808080;fill-opacity:0.50129235;stroke:none;stroke-width:1.77959179999999995;marker:none;visibility:visible;display:inline;overflow:visible;enable-background:accumulate"
       d="m 525.73146,316.1134 c 0,0 6.70634,-11.44927 8.85025,-17.70635 1.84198,-5.37591 2.94668,-11.87705 3.10286,-17.55762 0.19325,-7.02904 -1.14134,-13.6338 -3.18828,-20.36098 -1.84363,-6.05903 -8.37909,-17.79694 -8.37909,-17.79694 l -52.9919,36.8663 z"
       id="path4238-0-9-4-2-1-4-0-9"
       inkscape:connector-curvature="0"
       sodipodi:nodetypes="csssccc"
       inkscape:transform-center-y="-0.29687007"
       inkscape:transform-center-x="-60.499624" />
    <path
       style="color:#000000;fill:#808080;fill-opacity:0.50129235;stroke:none;stroke-width:1.77959179999999995;marker:none;visibility:visible;display:inline;overflow:visible;enable-background:accumulate"
       d="m 410.71368,315.90663 c 0,0 -6.70634,-11.44926 -8.85025,-17.70634 -1.84198,-5.37592 -2.94667,-11.87705 -3.10286,-17.55762 -0.19325,-7.02904 1.14135,-13.63381 3.18828,-20.36098 1.84363,-6.05903 8.37909,-17.79695 8.37909,-17.79695 l 52.99189,36.86631 z"
       id="path4238-0-9-8-8-7-0-7"
       inkscape:connector-curvature="0"
       sodipodi:nodetypes="csssccc"
       inkscape:transform-center-y="-0.29687007"
       inkscape:transform-center-x="60.499628" />
    <path
       style="color:#000000;fill:#808080;fill-opacity:0.50129235;stroke:none;stroke-width:1.77959179999999995;marker:none;visibility:visible;display:inline;overflow:visible;enable-background:accumulate"
       d="m 431.61217,221.92128 c 0,0 11.44926,-6.70633 17.70635,-8.85024 5.37591,-1.84199 11.87704,-2.94669 17.55761,-3.10287 7.02904,-0.19325 13.63381,1.14135 20.36098,3.18829 6.05904,1.84362 17.79695,8.37908 17.79695,8.37908 l -36.86631,52.99189 z"
       id="path4238-0-6-92-2-3-4"
       inkscape:connector-curvature="0"
       sodipodi:nodetypes="csssccc"
       inkscape:transform-center-y="-60.499623"
       inkscape:transform-center-x="-0.296875" />
    <path
       sodipodi:type="arc"
       style="color:#000000;fill:#000000;fill-opacity:1;fill-rule:nonzero;stroke:#000000;stroke-width:3.86895251;stroke-linecap:butt;stroke-linejoin:miter;stroke-miterlimit:4;stroke-opacity:1;stroke-dasharray:none;stroke-dashoffset:0;marker:none;visibility:visible;display:inline;overflow:visible;enable-background:accumulate"
       id="path3878-9-3-52-40-6-1-8"
       sodipodi:cx="-1032.2991"
       sodipodi:cy="-813.15125"
       sodipodi:rx="8.9508924"
       sodipodi:ry="8.9508924"
       d="m -1023.3482,-813.15125 a 8.9508924,8.9508924 0 1 1 -17.9018,0 8.9508924,8.9508924 0 1 1 17.9018,0 z"
       transform="matrix(-0.51693539,-6.8013661e-4,6.8013661e-4,-0.51693539,-64.957709,-141.61924)" />
    <path
       style="fill:#ffffff;fill-opacity:1;stroke:none"
       d="m 472.02086,282.27653 -3.77457,-3.23478 -3.86709,3.28019 -0.0376,-3.46479 3.86709,-3.28025 3.77288,2.99035 z"
       id="path3880-2-2-2-3-6-9-4-1-5"
       inkscape:connector-curvature="0"
       sodipodi:nodetypes="ccccccc" />
    <rect
       style="color:#000000;fill:#808080;fill-opacity:0.50129235;fill-rule:nonzero;stroke:none;stroke-width:0.50000000000000000;marker:none;visibility:visible;display:inline;overflow:visible;enable-background:accumulate"
       id="rect4140-6-22-1-7-8-1"
       width="6.4610529"
       height="2.8136845"
       x="-470.10443"
       y="-276.12756"
       transform="matrix(-0.99999152,0.00411826,-0.00411826,-0.99999152,0,0)" />
    <text
       xml:space="preserve"
       style="font-size:19.25162506px;font-style:normal;font-variant:normal;font-weight:bold;font-stretch:normal;text-align:start;line-height:125%;letter-spacing:0px;word-spacing:0px;writing-mode:lr-tb;text-anchor:start;fill:#000000;fill-opacity:1;stroke:none;font-family:Sans;-inkscape-font-specification:Sans Bold"
       x="-583.75555"
       y="378.47949"
       id="text22555-7-3"
       sodipodi:linespacing="125%"
       transform="scale(1.0129776,0.98718866)"><tspan
         sodipodi:role="line"
         id="tspan22557-7-9"
         x="-583.75555"
         y="378.47949"
         style="font-size:19.25162506px;font-style:normal;font-variant:normal;font-weight:bold;font-stretch:normal;text-align:start;line-height:125%;writing-mode:lr-tb;text-anchor:start;font-family:Sans;-inkscape-font-specification:Sans Bold">1T</tspan></text>
    <text
       xml:space="preserve"
       style="font-size:19.25162506px;font-style:normal;font-variant:normal;font-weight:bold;font-stretch:normal;text-align:start;line-height:125%;letter-spacing:0px;word-spacing:0px;writing-mode:lr-tb;text-anchor:start;fill:#000000;fill-opacity:1;stroke:none;font-family:Sans;-inkscape-font-specification:Sans Bold"
       x="-493.63498"
       y="378.47949"
       id="text22555-8-8-6"
       sodipodi:linespacing="125%"
       transform="scale(1.0129776,0.98718866)"><tspan
         sodipodi:role="line"
         id="tspan22557-6-46-5"
         x="-493.63498"
         y="378.47949"
         style="font-size:19.25162506px;font-style:normal;font-variant:normal;font-weight:bold;font-stretch:normal;text-align:start;line-height:125%;writing-mode:lr-tb;text-anchor:start;font-family:Sans;-inkscape-font-specification:Sans Bold">1U</tspan></text>
    <text
       xml:space="preserve"
       style="font-size:19.25162506px;font-style:normal;font-variant:normal;font-weight:bold;font-stretch:normal;text-align:start;line-height:125%;letter-spacing:0px;word-spacing:0px;writing-mode:lr-tb;text-anchor:start;fill:#000000;fill-opacity:1;stroke:none;font-family:Sans;-inkscape-font-specification:Sans Bold"
       x="-384.98154"
       y="379.36588"
       id="text22555-3-6-6"
       sodipodi:linespacing="125%"
       transform="scale(1.0129776,0.98718866)"><tspan
         sodipodi:role="line"
         id="tspan22557-9-53-3"
         x="-384.98154"
         y="379.36588"
         style="font-size:19.25162506px;font-style:normal;font-variant:normal;font-weight:bold;font-stretch:normal;text-align:start;line-height:125%;writing-mode:lr-tb;text-anchor:start;font-family:Sans;-inkscape-font-specification:Sans Bold">3T</tspan></text>
    <text
       xml:space="preserve"
       style="font-size:19.25162506px;font-style:normal;font-variant:normal;font-weight:bold;font-stretch:normal;text-align:start;line-height:125%;letter-spacing:0px;word-spacing:0px;writing-mode:lr-tb;text-anchor:start;fill:#000000;fill-opacity:1;stroke:none;font-family:Sans;-inkscape-font-specification:Sans Bold"
       x="-245.30399"
       y="378.47949"
       id="text22555-6-2-0"
       sodipodi:linespacing="125%"
       transform="scale(1.0129776,0.98718866)"><tspan
         sodipodi:role="line"
         id="tspan22557-3-7-6"
         x="-245.30399"
         y="378.47949"
         style="font-size:19.25162506px;font-style:normal;font-variant:normal;font-weight:bold;font-stretch:normal;text-align:start;line-height:125%;writing-mode:lr-tb;text-anchor:start;font-family:Sans;-inkscape-font-specification:Sans Bold">3U</tspan></text>
    <text
       xml:space="preserve"
       style="font-size:19.25162506px;font-style:normal;font-variant:normal;font-weight:bold;font-stretch:normal;text-align:start;line-height:125%;letter-spacing:0px;word-spacing:0px;writing-mode:lr-tb;text-anchor:start;fill:#000000;fill-opacity:1;stroke:none;font-family:Sans;-inkscape-font-specification:Sans Bold"
       x="-72.978966"
       y="378.47949"
       id="text22555-4-9-1"
       sodipodi:linespacing="125%"
       transform="scale(1.0129776,0.98718866)"><tspan
         sodipodi:role="line"
         id="tspan22557-4-9-9"
         x="-72.978966"
         y="378.47949"
         style="font-size:19.25162506px;font-style:normal;font-variant:normal;font-weight:bold;font-stretch:normal;text-align:start;line-height:125%;writing-mode:lr-tb;text-anchor:start;font-family:Sans;-inkscape-font-specification:Sans Bold">4U3T</tspan></text>
    <text
       xml:space="preserve"
       style="font-size:19.25162506px;font-style:normal;font-variant:normal;font-weight:bold;font-stretch:normal;text-align:start;line-height:125%;letter-spacing:0px;word-spacing:0px;writing-mode:lr-tb;text-anchor:start;fill:#000000;fill-opacity:1;stroke:none;font-family:Sans;-inkscape-font-specification:Sans Bold"
       x="117.67518"
       y="379.36588"
       id="text22555-9-7-7"
       sodipodi:linespacing="125%"
       transform="scale(1.0129776,0.98718866)"><tspan
         sodipodi:role="line"
         id="tspan22557-1-5-7"
         x="117.67518"
         y="379.36588"
         style="font-size:19.25162506px;font-style:normal;font-variant:normal;font-weight:bold;font-stretch:normal;text-align:start;line-height:125%;writing-mode:lr-tb;text-anchor:start;font-family:Sans;-inkscape-font-specification:Sans Bold">4U4T</tspan></text>
    <text
       xml:space="preserve"
       style="font-size:19.25162506px;font-style:normal;font-variant:normal;font-weight:bold;font-stretch:normal;text-align:start;line-height:125%;letter-spacing:0px;word-spacing:0px;writing-mode:lr-tb;text-anchor:start;fill:#000000;fill-opacity:1;stroke:none;font-family:Sans;-inkscape-font-specification:Sans Bold"
       x="289.76907"
       y="378.47949"
       id="text22555-1-5-6"
       sodipodi:linespacing="125%"
       transform="scale(1.0129776,0.98718866)"><tspan
         sodipodi:role="line"
         id="tspan22557-2-8-0"
         x="289.76907"
         y="378.47949"
         style="font-size:19.25162506px;font-style:normal;font-variant:normal;font-weight:bold;font-stretch:normal;text-align:start;line-height:125%;writing-mode:lr-tb;text-anchor:start;font-family:Sans;-inkscape-font-specification:Sans Bold">8T</tspan></text>
    <text
       xml:space="preserve"
       style="font-size:19.25162506px;font-style:normal;font-variant:normal;font-weight:bold;font-stretch:normal;text-align:start;line-height:125%;letter-spacing:0px;word-spacing:0px;writing-mode:lr-tb;text-anchor:start;fill:#000000;fill-opacity:1;stroke:none;font-family:Sans;-inkscape-font-specification:Sans Bold"
       x="449.41919"
       y="379.36588"
       id="text22555-66-4-3"
       sodipodi:linespacing="125%"
       transform="scale(1.0129776,0.98718866)"><tspan
         sodipodi:role="line"
         id="tspan22557-8-0-7"
         x="449.41919"
         y="379.36588"
         style="font-size:19.25162506px;font-style:normal;font-variant:normal;font-weight:bold;font-stretch:normal;text-align:start;line-height:125%;writing-mode:lr-tb;text-anchor:start;font-family:Sans;-inkscape-font-specification:Sans Bold">8U</tspan></text>
  </g>
</svg>
